<svg width="52" height="52" viewBox="0 0 52 52" fill="none" xmlns="http://www.w3.org/2000/svg">
<path d="M11.4101 12.4316L16.3911 9.56071C16.4525 9.52532 16.5063 9.47818 16.5495 9.42198C16.5927 9.36578 16.6244 9.30163 16.6427 9.23318C16.6611 9.16473 16.6658 9.09334 16.6566 9.02307C16.6474 8.9528 16.6244 8.88504 16.589 8.82366C16.4401 8.56567 16.1099 8.47639 15.8519 8.62579L10.871 11.4966C10.8095 11.532 10.7557 11.5792 10.7125 11.6354C10.6694 11.6916 10.6377 11.7557 10.6193 11.8242C10.6009 11.8926 10.5962 11.964 10.6054 12.0343C10.6147 12.1045 10.6377 12.1723 10.6731 12.2337C10.7446 12.3576 10.8625 12.448 11.0007 12.4851C11.1389 12.5222 11.2861 12.503 11.4101 12.4316ZM34.3272 19.0448C34.2557 18.9209 34.1379 18.8304 33.9997 18.7932C33.8615 18.756 33.7143 18.7752 33.5902 18.8464L31.6045 19.9906C31.4804 20.062 31.3899 20.1798 31.3527 20.318C31.3155 20.4562 31.3347 20.6036 31.4061 20.7276C31.4776 20.8516 31.5953 20.9421 31.7335 20.9793C31.8717 21.0165 32.0191 20.9973 32.1431 20.926L34.1288 19.7819C34.2528 19.7104 34.3434 19.5926 34.3806 19.4544C34.4178 19.3162 34.3986 19.1689 34.3272 19.0448ZM28.609 9.56071L33.59 12.4316C33.6514 12.467 33.7191 12.4899 33.7894 12.4991C33.8597 12.5084 33.931 12.5036 33.9995 12.4853C34.0679 12.4669 34.1321 12.4352 34.1883 12.392C34.2445 12.3489 34.2916 12.2951 34.327 12.2337C34.3624 12.1723 34.3854 12.1045 34.3946 12.0343C34.4038 11.964 34.3991 11.8926 34.3807 11.8242C34.3624 11.7557 34.3307 11.6916 34.2875 11.6354C34.2444 11.5792 34.1905 11.532 34.1291 11.4966L29.1482 8.62579C29.0868 8.5903 29.019 8.56726 28.9488 8.558C28.8785 8.54874 28.8071 8.55343 28.7386 8.57181C28.6701 8.59019 28.606 8.6219 28.5498 8.66512C28.4936 8.70833 28.4465 8.76221 28.4111 8.82366C28.3757 8.88504 28.3527 8.9528 28.3435 9.02307C28.3343 9.09334 28.339 9.16473 28.3574 9.23318C28.3757 9.30163 28.4074 9.36578 28.4506 9.42198C28.4938 9.47818 28.5476 9.52532 28.609 9.56071ZM10.8713 19.7819L12.857 20.926C12.9811 20.9973 13.1284 21.0165 13.2665 20.9793C13.4047 20.9421 13.5225 20.8516 13.594 20.7276C13.6654 20.6035 13.6846 20.4562 13.6474 20.318C13.6102 20.1798 13.5196 20.062 13.3956 19.9906L11.4099 18.8464C11.2859 18.7751 11.1385 18.7559 11.0003 18.7931C10.8621 18.8303 10.7444 18.9208 10.6729 19.0448C10.6015 19.1689 10.5823 19.3162 10.6195 19.4544C10.6567 19.5926 10.7473 19.7104 10.8713 19.7819ZM11.4099 32.96L13.3956 31.8159C13.5197 31.7444 13.6102 31.6266 13.6474 31.4884C13.6846 31.3502 13.6654 31.2029 13.594 31.0788C13.5225 30.9548 13.4048 30.8643 13.2666 30.8271C13.1284 30.7899 12.981 30.8091 12.857 30.8804L10.8713 32.0246C10.7472 32.096 10.6567 32.2138 10.6195 32.352C10.5823 32.4902 10.6015 32.6376 10.6729 32.7616C10.7444 32.8856 10.8622 32.9761 11.0003 33.0133C11.1385 33.0505 11.2859 33.0313 11.4099 32.96ZM33.5957 39.3746L28.6093 42.2454C28.4853 42.3169 28.3947 42.4347 28.3575 42.5729C28.3203 42.7111 28.3395 42.8584 28.4109 42.9825C28.4824 43.1064 28.6002 43.197 28.7384 43.2342C28.8766 43.2714 29.0239 43.2522 29.148 43.1808L34.1344 40.31C34.2584 40.2385 34.349 40.1208 34.3862 39.9825C34.4234 39.8443 34.4042 39.697 34.3328 39.5729C34.2612 39.4491 34.1434 39.3586 34.0053 39.3214C33.8671 39.2842 33.7198 39.3033 33.5957 39.3746ZM16.3908 42.2454L11.4044 39.3746C11.1462 39.2268 10.8162 39.3148 10.6673 39.5729C10.5959 39.697 10.5768 39.8443 10.614 39.9825C10.6512 40.1207 10.7417 40.2385 10.8657 40.31L15.8521 43.1808C15.9759 43.2481 16.1211 43.2644 16.2567 43.2261C16.3923 43.1878 16.5076 43.0981 16.5779 42.976C16.6482 42.8539 16.668 42.7091 16.633 42.5726C16.5981 42.4361 16.5111 42.3187 16.3908 42.2454ZM34.1287 32.0246L32.143 30.8804C32.019 30.809 31.8716 30.7898 31.7334 30.827C31.5952 30.8642 31.4774 30.9548 31.406 31.0788C31.3345 31.2029 31.3153 31.3502 31.3525 31.4884C31.3897 31.6267 31.4803 31.7444 31.6044 31.8159L33.5901 32.96C33.7142 33.0313 33.8615 33.0505 33.9996 33.0133C34.1378 32.9761 34.2556 32.8856 34.3271 32.7616C34.3985 32.6376 34.4178 32.4902 34.3806 32.352C34.3434 32.2138 34.2528 32.096 34.1287 32.0246ZM14.7226 30.0905C14.7226 30.1852 14.7475 30.2783 14.7949 30.3604C14.8423 30.4424 14.9105 30.5105 14.9926 30.5579L22.2304 34.7301C22.3772 34.8149 22.59 34.8338 22.7695 34.7301L30.0073 30.5579C30.0894 30.5105 30.1576 30.4424 30.205 30.3604C30.2524 30.2783 30.2773 30.1852 30.2773 30.0905V21.716C30.2773 21.5281 30.1553 21.3338 30.0073 21.2486L22.7695 17.0763C22.6876 17.0289 22.5946 17.0039 22.4999 17.0039C22.4053 17.0039 22.3123 17.0289 22.2304 17.0763L14.9926 21.2486C14.8323 21.3408 14.7226 21.5452 14.7226 21.716V30.0905ZM15.8019 22.6514L21.9604 26.2015V33.3287L15.8019 29.7787V22.6514ZM23.0397 33.3287V26.2015L29.1982 22.6514V29.7787L23.0397 33.3287ZM22.5 18.1666L28.6587 21.7167L22.5 25.2669L16.3413 21.7167L22.5 18.1666ZM18.0089 8.32538L22.2305 10.7588C22.3124 10.806 22.4054 10.8309 22.5 10.8309C22.5947 10.8309 22.6877 10.806 22.7696 10.7588L26.9912 8.32538C27.0733 8.27806 27.1415 8.20994 27.1889 8.12789C27.2363 8.04583 27.2613 7.95274 27.2612 7.85797V2.97315C27.2612 2.78601 27.14 2.59147 26.9912 2.50575L22.7696 0.0723449C22.6877 0.0249533 22.5947 0 22.5 0C22.4054 0 22.3124 0.0249533 22.2305 0.0723449L18.0089 2.50575C17.8609 2.59087 17.7389 2.78763 17.7389 2.97315V7.85787C17.7389 7.95265 17.7638 8.04576 17.8112 8.12783C17.8586 8.2099 17.9268 8.27804 18.0089 8.32538ZM18.8181 3.90817L21.9603 5.71941V9.35736L18.8181 7.54623V3.90817ZM23.0397 9.35736V5.71941L26.1819 3.90817V7.54623L23.0397 9.35736ZM22.5 1.16273L25.6419 2.97376L22.5 4.78479L19.3581 2.97376L22.5 1.16273ZM9.25263 12.7419L5.03077 10.3085C4.94883 10.2611 4.85584 10.2361 4.76118 10.2361C4.66653 10.2361 4.57354 10.2611 4.4916 10.3085L0.27004 12.7419C0.123279 12.8264 1.18911e-09 13.0224 1.18911e-09 13.2093V18.094C-6.28978e-06 18.1888 0.0249491 18.2819 0.0723545 18.3639C0.11976 18.446 0.187943 18.5141 0.27004 18.5614L4.4918 20.9948C4.57377 21.0421 4.66675 21.067 4.76139 21.067C4.85603 21.067 4.949 21.0421 5.03097 20.9948L9.25253 18.5614C9.33463 18.5141 9.40282 18.446 9.45023 18.3639C9.49764 18.2819 9.52259 18.1888 9.52257 18.094V13.2093C9.52267 13.0226 9.40142 12.8276 9.25263 12.7419ZM4.76123 11.3989L7.90344 13.2099L4.76154 15.0209L1.61933 13.2099L4.76123 11.3989ZM1.07935 14.1443L4.22186 15.9556V19.5936L1.07935 17.7824V14.1443ZM5.30121 19.5936V15.9556L8.44342 14.1444V17.7825L5.30121 19.5936ZM44.7299 12.7419L40.5084 10.3085C40.4265 10.2611 40.3335 10.2361 40.2388 10.2361C40.1442 10.2361 40.0512 10.2611 39.9692 10.3085L35.7475 12.7419C35.6002 12.8267 35.4774 13.0223 35.4774 13.2093V18.094C35.4774 18.1888 35.5024 18.2819 35.5498 18.3639C35.5972 18.446 35.6654 18.5141 35.7475 18.5614L39.9692 20.9948C40.0512 21.0421 40.1442 21.067 40.2388 21.067C40.3334 21.067 40.4264 21.0421 40.5084 20.9948L44.73 18.5614C44.8121 18.5141 44.8802 18.446 44.9277 18.3639C44.9751 18.2819 45 18.1888 45 18.094V13.2093C45 13.0244 44.8802 12.8285 44.7299 12.7419ZM40.2389 11.3989L43.3808 13.2099L40.2389 15.0209L37.0967 13.2099L40.2389 11.3989ZM36.5567 14.1443L39.6992 15.9556V19.5936L36.5567 17.7824V14.1443ZM40.7784 19.5936V15.9556L43.9206 14.1444V17.7825L40.7784 19.5936ZM9.25263 33.235L5.03087 30.8016C4.94893 30.7542 4.85594 30.7292 4.76129 30.7292C4.66663 30.7292 4.57364 30.7542 4.4917 30.8016L0.270142 33.235C0.107895 33.3283 0.00010116 33.5342 0.00010116 33.7024V38.5871C9.48692e-05 38.6819 0.0250503 38.775 0.0724557 38.857C0.119861 38.9391 0.188044 39.0072 0.270142 39.0545L4.4919 41.4879C4.57387 41.5352 4.66685 41.5601 4.76149 41.5601C4.85613 41.5601 4.9491 41.5352 5.03107 41.4879L9.25263 39.0545C9.33474 39.0072 9.40293 38.9391 9.45033 38.857C9.49774 38.775 9.52269 38.6819 9.52267 38.5871V33.7024C9.52267 33.5162 9.40162 33.3208 9.25263 33.235ZM4.76123 31.892L7.90344 33.703L4.76154 35.514L1.61933 33.703L4.76123 31.892ZM1.07935 34.6374L4.22186 36.4488V40.0867L1.07935 38.2755V34.6374ZM5.30121 40.0867V36.4488L8.44342 34.6375V38.2756L5.30121 40.0867ZM44.7299 33.235L40.5083 30.8016C40.4264 30.7542 40.3334 30.7292 40.2387 30.7292C40.1441 30.7292 40.0511 30.7542 39.9691 30.8016L35.7474 33.235C35.6001 33.3197 35.4773 33.5163 35.4773 33.7024V38.5871C35.4773 38.6819 35.5023 38.775 35.5497 38.857C35.5971 38.9391 35.6653 39.0072 35.7474 39.0545L39.9691 41.4879C40.0511 41.5352 40.1441 41.5601 40.2387 41.5601C40.3333 41.5601 40.4263 41.5352 40.5083 41.4879L44.7299 39.0545C44.812 39.0072 44.8801 38.9391 44.9276 38.857C44.975 38.775 44.9999 38.6819 44.9999 38.5871V33.7024C45 33.5149 44.8777 33.3201 44.7299 33.235ZM40.2389 31.892L43.3808 33.703L40.2389 35.514L37.0967 33.703L40.2389 31.892ZM36.5567 34.6374L39.6992 36.4488V40.0867L36.5567 38.2755V34.6374ZM40.7784 40.0867V36.4488L43.9206 34.6375V38.2756L40.7784 40.0867ZM26.9911 43.4809L22.7695 41.0475C22.6876 41.0002 22.5946 40.9752 22.4999 40.9752C22.4053 40.9752 22.3123 41.0002 22.2304 41.0475L18.0088 43.4809C17.8606 43.5664 17.7388 43.7631 17.7388 43.9484V48.8331C17.7388 48.9278 17.7637 49.0209 17.8111 49.103C17.8585 49.185 17.9267 49.2532 18.0088 49.3005L22.2304 51.7339C22.4103 51.8377 22.6192 51.8205 22.7695 51.7339L26.9911 49.3005C27.0732 49.2532 27.1414 49.185 27.1888 49.103C27.2362 49.0209 27.2611 48.9278 27.2611 48.8331V43.9484C27.2612 43.7611 27.1391 43.5661 26.9911 43.4809ZM22.5 42.1379L25.6419 43.949L22.5 45.76L19.3581 43.949L22.5 42.1379ZM18.8181 44.8834L21.9603 46.6946V50.3326L18.8181 48.5214V44.8834ZM23.0397 50.3326V46.6946L26.1819 44.8834V48.5214L23.0397 50.3326Z" fill="url(#paint0_linear_275_2)"/>
<defs>
<linearGradient id="paint0_linear_275_2" x1="9.64286" y1="4.59184" x2="33.0612" y2="42.7041" gradientUnits="userSpaceOnUse">
<stop stop-color="#FF06B7"/>
<stop offset="0.848052" stop-color="#5618B8"/>
</linearGradient>
</defs>
</svg>
