<svg width="170" height="52" viewBox="0 0 1672 512" fill="none" xmlns="http://www.w3.org/2000/svg">
<path d="M559.4 256.2C559.4 242.6 562.533 230.4 568.8 219.6C575.2 208.8 583.8 200.4 594.6 194.4C605.533 188.267 617.467 185.2 630.4 185.2C645.2 185.2 658.333 188.867 669.8 196.2C681.4 203.4 689.8 213.667 695 227H667.6C664 219.667 659 214.2 652.6 210.6C646.2 207 638.8 205.2 630.4 205.2C621.2 205.2 613 207.267 605.8 211.4C598.6 215.533 592.933 221.467 588.8 229.2C584.8 236.933 582.8 245.933 582.8 256.2C582.8 266.467 584.8 275.467 588.8 283.2C592.933 290.933 598.6 296.933 605.8 301.2C613 305.333 621.2 307.4 630.4 307.4C638.8 307.4 646.2 305.6 652.6 302C659 298.4 664 292.933 667.6 285.6H695C689.8 298.933 681.4 309.2 669.8 316.4C658.333 323.6 645.2 327.2 630.4 327.2C617.333 327.2 605.4 324.2 594.6 318.2C583.8 312.067 575.2 303.6 568.8 292.8C562.533 282 559.4 269.8 559.4 256.2ZM744.488 231.8C747.821 226.2 752.221 221.867 757.688 218.8C763.288 215.6 769.888 214 777.488 214V237.6H771.688C762.754 237.6 755.954 239.867 751.288 244.4C746.754 248.933 744.488 256.8 744.488 268V326H721.688V215.8H744.488V231.8ZM897.645 215.8L830.045 377.8H806.445L828.845 324.2L785.445 215.8H810.845L841.845 299.8L874.045 215.8H897.645ZM937.652 232C941.518 226.933 946.785 222.667 953.452 219.2C960.118 215.733 967.652 214 976.052 214C985.652 214 994.385 216.4 1002.25 221.2C1010.25 225.867 1016.52 232.467 1021.05 241C1025.58 249.533 1027.85 259.333 1027.85 270.4C1027.85 281.467 1025.58 291.4 1021.05 300.2C1016.52 308.867 1010.25 315.667 1002.25 320.6C994.385 325.4 985.652 327.8 976.052 327.8C967.652 327.8 960.185 326.133 953.652 322.8C947.118 319.333 941.785 315.067 937.652 310V378.4H914.852V215.8H937.652V232ZM1004.65 270.4C1004.65 262.8 1003.05 256.267 999.852 250.8C996.785 245.2 992.652 241 987.452 238.2C982.385 235.267 976.918 233.8 971.052 233.8C965.318 233.8 959.852 235.267 954.652 238.2C949.585 241.133 945.452 245.4 942.252 251C939.185 256.6 937.652 263.2 937.652 270.8C937.652 278.4 939.185 285.067 942.252 290.8C945.452 296.4 949.585 300.667 954.652 303.6C959.852 306.533 965.318 308 971.052 308C976.918 308 982.385 306.533 987.452 303.6C992.652 300.533 996.785 296.133 999.852 290.4C1003.05 284.667 1004.65 278 1004.65 270.4ZM1077 234.4V295.4C1077 299.533 1077.93 302.533 1079.8 304.4C1081.8 306.133 1085.13 307 1089.8 307H1103.8V326H1085.8C1075.53 326 1067.67 323.6 1062.2 318.8C1056.73 314 1054 306.2 1054 295.4V234.4H1041V215.8H1054V188.4H1077V215.8H1103.8V234.4H1077ZM1172.61 327.8C1162.21 327.8 1152.81 325.467 1144.41 320.8C1136.01 316 1129.41 309.333 1124.61 300.8C1119.81 292.133 1117.41 282.133 1117.41 270.8C1117.41 259.6 1119.88 249.667 1124.81 241C1129.75 232.333 1136.48 225.667 1145.01 221C1153.55 216.333 1163.08 214 1173.61 214C1184.15 214 1193.68 216.333 1202.21 221C1210.75 225.667 1217.48 232.333 1222.41 241C1227.35 249.667 1229.81 259.6 1229.81 270.8C1229.81 282 1227.28 291.933 1222.21 300.6C1217.15 309.267 1210.21 316 1201.41 320.8C1192.75 325.467 1183.15 327.8 1172.61 327.8ZM1172.61 308C1178.48 308 1183.95 306.6 1189.01 303.8C1194.21 301 1198.41 296.8 1201.61 291.2C1204.81 285.6 1206.41 278.8 1206.41 270.8C1206.41 262.8 1204.88 256.067 1201.81 250.6C1198.75 245 1194.68 240.8 1189.61 238C1184.55 235.2 1179.08 233.8 1173.21 233.8C1167.35 233.8 1161.88 235.2 1156.81 238C1151.88 240.8 1147.95 245 1145.01 250.6C1142.08 256.067 1140.61 262.8 1140.61 270.8C1140.61 282.667 1143.61 291.867 1149.61 298.4C1155.75 304.8 1163.41 308 1172.61 308ZM1307.95 214C1316.62 214 1324.35 215.8 1331.15 219.4C1338.08 223 1343.48 228.333 1347.35 235.4C1351.22 242.467 1353.15 251 1353.15 261V326H1330.55V264.4C1330.55 254.533 1328.08 247 1323.15 241.8C1318.22 236.467 1311.48 233.8 1302.95 233.8C1294.42 233.8 1287.62 236.467 1282.55 241.8C1277.62 247 1275.15 254.533 1275.15 264.4V326H1252.35V215.8H1275.15V228.4C1278.88 223.867 1283.62 220.333 1289.35 217.8C1295.22 215.267 1301.42 214 1307.95 214ZM1483.23 268.2C1483.23 272.333 1482.97 276.067 1482.43 279.4H1398.23C1398.9 288.2 1402.17 295.267 1408.03 300.6C1413.9 305.933 1421.1 308.6 1429.63 308.6C1441.9 308.6 1450.57 303.467 1455.63 293.2H1480.23C1476.9 303.333 1470.83 311.667 1462.03 318.2C1453.37 324.6 1442.57 327.8 1429.63 327.8C1419.1 327.8 1409.63 325.467 1401.23 320.8C1392.97 316 1386.43 309.333 1381.63 300.8C1376.97 292.133 1374.63 282.133 1374.63 270.8C1374.63 259.467 1376.9 249.533 1381.43 241C1386.1 232.333 1392.57 225.667 1400.83 221C1409.23 216.333 1418.83 214 1429.63 214C1440.03 214 1449.3 216.267 1457.43 220.8C1465.57 225.333 1471.9 231.733 1476.43 240C1480.97 248.133 1483.23 257.533 1483.23 268.2ZM1459.43 261C1459.3 252.6 1456.3 245.867 1450.43 240.8C1444.57 235.733 1437.3 233.2 1428.63 233.2C1420.77 233.2 1414.03 235.733 1408.43 240.8C1402.83 245.733 1399.5 252.467 1398.43 261H1459.43ZM1545.67 327.8C1537.01 327.8 1529.21 326.267 1522.27 323.2C1515.47 320 1510.07 315.733 1506.07 310.4C1502.07 304.933 1499.94 298.867 1499.67 292.2H1523.27C1523.67 296.867 1525.87 300.8 1529.87 304C1534.01 307.067 1539.14 308.6 1545.27 308.6C1551.67 308.6 1556.61 307.4 1560.07 305C1563.67 302.467 1565.47 299.267 1565.47 295.4C1565.47 291.267 1563.47 288.2 1559.47 286.2C1555.61 284.2 1549.41 282 1540.87 279.6C1532.61 277.333 1525.87 275.133 1520.67 273C1515.47 270.867 1510.94 267.6 1507.07 263.2C1503.34 258.8 1501.47 253 1501.47 245.8C1501.47 239.933 1503.21 234.6 1506.67 229.8C1510.14 224.867 1515.07 221 1521.47 218.2C1528.01 215.4 1535.47 214 1543.87 214C1556.41 214 1566.47 217.2 1574.07 223.6C1581.81 229.867 1585.94 238.467 1586.47 249.4H1563.67C1563.27 244.467 1561.27 240.533 1557.67 237.6C1554.07 234.667 1549.21 233.2 1543.07 233.2C1537.07 233.2 1532.47 234.333 1529.27 236.6C1526.07 238.867 1524.47 241.867 1524.47 245.6C1524.47 248.533 1525.54 251 1527.67 253C1529.81 255 1532.41 256.6 1535.47 257.8C1538.54 258.867 1543.07 260.267 1549.07 262C1557.07 264.133 1563.61 266.333 1568.67 268.6C1573.87 270.733 1578.34 273.933 1582.07 278.2C1585.81 282.467 1587.74 288.133 1587.87 295.2C1587.87 301.467 1586.14 307.067 1582.67 312C1579.21 316.933 1574.27 320.8 1567.87 323.6C1561.61 326.4 1554.21 327.8 1545.67 327.8ZM1639.11 234.4V295.4C1639.11 299.533 1640.04 302.533 1641.91 304.4C1643.91 306.133 1647.24 307 1651.91 307H1665.91V326H1647.91C1637.64 326 1629.77 323.6 1624.31 318.8C1618.84 314 1616.11 306.2 1616.11 295.4V234.4H1603.11V215.8H1616.11V188.4H1639.11V215.8H1665.91V234.4H1639.11Z" fill="white"/>
<path fill-rule="evenodd" clip-rule="evenodd" d="M364.01 136.18H351.373V161.337H372.75C389.167 161.337 389.167 136.18 372.75 136.18H364.01ZM150.588 398.026C59.6447 398.026 -6.25977 311.453 17.0076 224.289C41.2198 134.172 145.391 94.1333 223.579 143.03C221.689 92.1254 247.673 44.4096 292.555 18.5439C358.459 -19.6052 443.025 3.07166 481.174 68.9762C519.086 134.644 496.528 219.328 430.978 257.477C516.961 312.043 516.842 441.018 426.017 493.458C336.491 545.071 223.343 482.828 218.973 379.838C198.068 391.766 174.446 398.026 150.588 398.026ZM238.107 153.424C268.224 178.108 286.767 215.667 288.303 254.052C327.515 231.611 376.412 230.076 416.805 249.564C480.937 217.793 505.15 137.833 469.363 75.8264C434.993 16.4179 358.813 -4.01484 299.405 30.3547C255.705 55.5118 231.847 103.582 238.107 153.424ZM237.398 367.2L232.555 370.979C230.193 467.592 335.428 529.953 419.167 481.647C478.575 447.277 499.008 371.097 464.757 311.689C428.852 249.564 347.239 231.021 288.066 270.233C285.232 308.618 266.925 343.342 237.398 367.2ZM150.234 135.471C55.2747 135.471 -5.1968 239.288 42.6371 322.201C81.731 389.995 172.556 404.286 230.784 354.917C275.901 316.886 288.657 250.627 258.185 197.714C235.981 159.329 194.643 135.471 150.234 135.471ZM150.588 368.027C111.967 368.027 76.0618 347.358 56.8101 314.051C14.9997 241.414 68.621 152.006 150.234 152.006C188.855 152.006 224.76 172.675 244.012 205.982C285.822 278.501 232.083 368.027 150.588 368.027ZM150.234 165.589C79.0145 165.589 32.0074 243.777 68.621 307.201C94.7229 352.318 152.95 367.554 197.595 341.688C242.713 315.705 258.185 257.832 232.201 212.832C215.312 183.659 184.013 165.589 150.234 165.589ZM415.624 230.43C409.482 230.43 367.671 207.872 308.972 227.123C305.192 228.304 301.176 226.06 300.232 222.281C293.027 193.699 277.319 167.124 255.823 147.046C254.406 145.747 253.697 144.093 253.579 142.321C251.217 81.1413 300.822 30.0004 361.412 30.0004C400.033 30.0004 435.938 50.7875 455.19 84.094C484.245 134.526 468.536 198.423 419.285 229.486C418.104 230.076 416.923 230.43 415.624 230.43ZM356.924 205.864C376.766 205.864 396.136 209.289 414.797 216.021C455.662 188.266 468.3 133.936 443.379 90.8262C417.395 45.945 359.05 30.4728 314.405 56.3386C284.759 73.4643 266.807 104.881 267.161 139.014C287.83 158.975 303.302 184.486 311.57 212.005C326.215 207.872 341.451 205.864 356.924 205.864ZM357.16 481.883C300.822 481.883 253.579 437.947 249.209 382.436C249.091 380.192 249.917 378.184 251.571 376.767C279.208 352.791 297.515 319.602 303.066 283.225C303.421 281.099 304.72 279.327 306.609 278.264C357.396 251.572 421.647 269.879 450.465 319.838C492.394 392.357 438.655 481.883 357.16 481.883ZM263.146 384.68C270.823 452.002 345.94 489.206 404.167 455.663C449.284 429.561 464.757 371.806 438.773 326.689C414.088 284.052 359.994 267.635 315.94 288.776C309.562 325.744 290.901 359.523 263.146 384.68ZM150.352 339.681C148.108 339.681 145.982 338.5 144.683 336.61L91.8883 256.414L90.8253 252.635L92.4789 248.265L145.155 182.833C147.636 179.644 153.068 179.644 155.667 182.833L208.579 248.501C210.351 250.863 210.469 254.17 208.698 256.65L156.139 336.61C154.84 338.5 152.714 339.681 150.352 339.681ZM117.754 270.942L150.352 320.547L183.068 270.942C177.517 273.776 156.73 285.351 152.596 286.65C150.824 287.241 148.935 287.122 147.281 286.296L117.754 270.942ZM108.187 250.509L150.352 272.477L192.635 250.509L150.352 197.951L108.187 250.509ZM357.042 430.27C348.538 430.27 350.31 419.758 350.31 414.089C344.522 414.089 333.538 415.861 333.538 407.239C333.538 403.459 336.609 400.388 340.388 400.388H366.963V380.664H340.388C336.609 380.664 333.538 377.593 333.538 373.932C333.538 331.177 329.877 333.657 350.31 333.657C350.31 327.988 348.538 317.476 357.042 317.476C365.546 317.476 363.892 327.988 363.892 333.657C369.561 333.657 380.545 331.885 380.545 340.507C380.545 344.287 377.593 347.358 373.813 347.358H347.239V367.082H373.813C377.593 367.082 380.545 370.153 380.545 373.932C380.545 416.569 384.325 414.089 363.892 414.089C363.892 419.758 365.546 430.27 357.042 430.27ZM344.522 174.919C337.2 174.919 324.208 177.282 324.208 168.187C324.208 160.51 332.475 161.337 337.79 161.337V97.4403C332.475 97.4403 324.208 98.1489 324.208 90.59C324.208 81.4957 337.2 83.7397 344.522 83.7397H347.475C347.475 78.5429 346.648 70.2754 354.207 70.2754C361.884 70.2754 361.057 78.5429 361.057 83.7397H364.01C385.742 83.7397 397.435 108.779 385.033 125.55C408.301 138.07 400.269 174.919 372.75 174.919H361.057C361.057 180.471 362.475 190.274 354.207 190.274C346.058 190.274 347.475 180.471 347.475 174.919H344.522ZM351.373 122.597H364.246C380.427 122.361 380.309 97.4403 364.01 97.4403H351.373V122.597Z" fill="#FF06B7"/>
</svg>

 