<svg xmlns="http://www.w3.org/2000/svg" width="50" height="50" viewBox="0 0 50 50" fill="none"><g clip-path="url(#clip0_352_29)"><path d="M17.0227 50C13.6558 49.9999 10.3645 49.0013 7.56516 47.1307C4.76577 45.26 2.58396 42.6013 1.29562 39.4906C0.00727158 36.38 -0.329738 32.9572 0.327203 29.655C0.984145 26.3528 2.60553 23.3196 4.98633 20.9389C7.36713 18.5582 10.4004 16.937 13.7026 16.2802C17.0048 15.6234 20.4276 15.9606 23.5382 17.249C26.6488 18.5375 29.3074 20.7195 31.178 23.5189C33.0485 26.3184 34.0469 29.6097 34.0469 32.9766C34.0417 37.49 32.2464 41.8171 29.0548 45.0085C25.8633 48.1999 21.5361 49.995 17.0227 50ZM17.0227 18.0969C14.0796 18.0969 11.2025 18.9696 8.75544 20.6047C6.30834 22.2399 4.40107 24.5639 3.27483 27.283C2.14858 30.0021 1.85395 32.9941 2.42818 35.8807C3.00241 38.7672 4.41971 41.4187 6.50086 43.4997C8.58201 45.5807 11.2335 46.9979 14.1201 47.572C17.0067 48.1461 19.9987 47.8513 22.7177 46.7249C25.4368 45.5985 27.7607 43.6911 29.3957 41.2439C31.0307 38.7967 31.9033 35.9197 31.9031 32.9766C31.8986 29.0315 30.3293 25.2493 27.5397 22.4598C24.75 19.6703 20.9677 18.1012 17.0227 18.0969Z" fill="#FF06B7"></path><path d="M36.1653 27.6682C35.881 27.6682 35.6083 27.5552 35.4073 27.3542C35.2063 27.1532 35.0934 26.8806 35.0934 26.5963C35.0934 26.312 35.2063 26.0394 35.4073 25.8384C35.6083 25.6373 35.881 25.5244 36.1653 25.5244C38.4773 25.5244 40.7375 24.8388 42.6599 23.5543C44.5823 22.2697 46.0806 20.444 46.9653 18.3079C47.8501 16.1718 48.0816 13.8213 47.6304 11.5537C47.1793 9.28608 46.0659 7.20315 44.431 5.56833C42.796 3.93351 40.713 2.82022 38.4454 2.36925C36.1777 1.91829 33.8272 2.1499 31.6912 3.03479C29.5552 3.91969 27.7295 5.41813 26.4451 7.34062C25.1607 9.2631 24.4753 11.5233 24.4754 13.8354C24.4754 14.1196 24.3625 14.3923 24.1615 14.5933C23.9605 14.7943 23.6878 14.9072 23.4035 14.9072C23.1193 14.9072 22.8466 14.7943 22.6456 14.5933C22.4446 14.3923 22.3317 14.1196 22.3317 13.8354C22.3315 11.0993 23.1427 8.42464 24.6627 6.14961C26.1826 3.87459 28.3431 2.10138 30.8708 1.05423C33.3986 0.00707496 36.1801 -0.266988 38.8636 0.266696C41.5471 0.80038 44.0121 2.11784 45.9468 4.05247C47.8816 5.9871 49.1992 8.45201 49.733 11.1355C50.2668 13.819 49.9929 16.6005 48.9459 19.1283C47.8989 21.6561 46.1258 23.8166 43.8509 25.3367C41.5759 26.8568 38.9013 27.6682 36.1653 27.6682ZM18.6176 43.6197C18.3335 43.6193 18.0611 43.5063 17.8601 43.3053C17.6592 43.1044 17.5461 42.832 17.5457 42.5479V40.9525C17.5457 40.8137 17.4906 40.6806 17.3924 40.5824C17.2943 40.4843 17.1611 40.4291 17.0223 40.4291H15.4278C15.359 40.429 15.2908 40.4425 15.2272 40.4687C15.1636 40.495 15.1058 40.5335 15.0571 40.5821C15.0084 40.6308 14.9698 40.6885 14.9435 40.7521C14.9171 40.8156 14.9035 40.8837 14.9035 40.9525V42.5479C14.9074 42.691 14.8826 42.8335 14.8304 42.9668C14.7783 43.1002 14.7 43.2218 14.6002 43.3244C14.5003 43.427 14.3808 43.5086 14.2489 43.5643C14.117 43.62 13.9753 43.6487 13.8321 43.6487C13.6889 43.6487 13.5471 43.62 13.4152 43.5643C13.2833 43.5086 13.1638 43.427 13.064 43.3244C12.9641 43.2218 12.8858 43.1002 12.8337 42.9668C12.7816 42.8335 12.7567 42.691 12.7606 42.5479V40.9525C12.7606 40.8137 12.7054 40.6806 12.6073 40.5824C12.5091 40.4843 12.376 40.4291 12.2371 40.4291H10.6418C10.4987 40.433 10.3562 40.4081 10.2228 40.356C10.0895 40.3039 9.96787 40.2256 9.86526 40.1257C9.76265 40.0258 9.68109 39.9064 9.6254 39.7745C9.56971 39.6426 9.54102 39.5008 9.54102 39.3576C9.54102 39.2144 9.56971 39.0727 9.6254 38.9408C9.68109 38.8088 9.76265 38.6894 9.86526 38.5895C9.96787 38.4896 10.0895 38.4113 10.2228 38.3592C10.3562 38.3071 10.4987 38.2823 10.6418 38.2861H12.2371C12.376 38.2861 12.5091 38.231 12.6073 38.1328C12.7054 38.0347 12.7606 37.9015 12.7606 37.7627V28.1916C12.7606 28.1229 12.747 28.0548 12.7207 27.9913C12.6944 27.9278 12.6559 27.8701 12.6073 27.8215C12.5587 27.7729 12.501 27.7343 12.4374 27.708C12.3739 27.6817 12.3059 27.6682 12.2371 27.6682H10.6418C10.3575 27.6682 10.0849 27.5552 9.8839 27.3542C9.68288 27.1532 9.56995 26.8806 9.56995 26.5963C9.56995 26.312 9.68288 26.0394 9.8839 25.8384C10.0849 25.6373 10.3575 25.5244 10.6418 25.5244H12.2371C12.376 25.5244 12.5091 25.4693 12.6073 25.3711C12.7054 25.2729 12.7606 25.1398 12.7606 25.001V23.4057C12.7681 23.1265 12.8843 22.8613 13.0844 22.6665C13.2846 22.4717 13.5528 22.3627 13.8321 22.3627C14.1113 22.3627 14.3796 22.4717 14.5797 22.6665C14.7798 22.8613 14.896 23.1265 14.9035 23.4057V25.0002C14.9035 25.069 14.9171 25.1371 14.9435 25.2007C14.9698 25.2642 15.0084 25.322 15.0571 25.3706C15.1058 25.4192 15.1636 25.4578 15.2272 25.484C15.2908 25.5103 15.359 25.5237 15.4278 25.5236H17.0223C17.1611 25.5236 17.2943 25.4685 17.3924 25.3703C17.4906 25.2722 17.5457 25.139 17.5457 25.0002V23.4057C17.5457 23.1214 17.6587 22.8488 17.8597 22.6477C18.0607 22.4467 18.3333 22.3338 18.6176 22.3338C18.9019 22.3338 19.1745 22.4467 19.3755 22.6477C19.5766 22.8488 19.6895 23.1214 19.6895 23.4057V25.2955C19.6895 25.4035 19.7229 25.5089 19.7852 25.5971C19.8474 25.6854 19.9354 25.7522 20.0371 25.7885C20.6235 25.9917 21.1577 26.3219 21.6017 26.7555C22.0456 27.1891 22.3883 27.7155 22.6053 28.2969C22.8222 28.8783 22.9081 29.5004 22.8567 30.1188C22.8054 30.7373 22.6181 31.3368 22.3082 31.8744C22.2406 31.9914 22.221 32.13 22.2535 32.2611C22.286 32.3923 22.368 32.5057 22.4825 32.5775C23.261 33.0707 23.8585 33.8031 24.1852 34.6648C24.5119 35.5265 24.5503 36.471 24.2945 37.3563C24.0387 38.2417 23.5025 39.0201 22.7665 39.5748C22.0305 40.1294 21.1345 40.4303 20.2129 40.4322C20.0741 40.4322 19.941 40.4874 19.8428 40.5855C19.7446 40.6837 19.6895 40.8168 19.6895 40.9557V42.551C19.6882 42.8346 19.5748 43.1062 19.374 43.3064C19.1731 43.5067 18.9012 43.6193 18.6176 43.6197ZM15.4278 34.0486C15.359 34.0485 15.2908 34.062 15.2272 34.0883C15.1636 34.1145 15.1058 34.1531 15.0571 34.2017C15.0084 34.2503 14.9698 34.308 14.9435 34.3716C14.9171 34.4351 14.9035 34.5033 14.9035 34.5721V37.7627C14.9035 37.8315 14.9171 37.8996 14.9435 37.9632C14.9698 38.0267 15.0084 38.0845 15.0571 38.1331C15.1058 38.1817 15.1636 38.2203 15.2272 38.2465C15.2908 38.2728 15.359 38.2862 15.4278 38.2861H20.2129C23.0168 38.2861 23.0137 34.0486 20.2129 34.0486H15.4278ZM15.4278 27.6682C15.359 27.6681 15.2908 27.6815 15.2272 27.7078C15.1636 27.734 15.1058 27.7726 15.0571 27.8212C15.0084 27.8698 14.9698 27.9276 14.9435 27.9911C14.9171 28.0547 14.9035 28.1228 14.9035 28.1916V31.3814C14.9035 31.4503 14.9171 31.5184 14.9435 31.5819C14.9698 31.6455 15.0084 31.7032 15.0571 31.7519C15.1058 31.8005 15.1636 31.839 15.2272 31.8653C15.2908 31.8915 15.359 31.905 15.4278 31.9049H18.6176C21.4223 31.9049 21.4184 27.6682 18.6176 27.6682H15.4278Z" fill="#FF06B7"></path><path d="M35.0939 21.8113C35.0759 21.7332 35.1821 21.2246 34.7259 21.0824C34.1057 20.895 33.5358 20.5697 33.0591 20.131C32.5823 19.6923 32.2109 19.1514 31.9728 18.5488C31.8725 18.283 31.8819 17.9882 31.999 17.7293C32.116 17.4704 32.3311 17.2686 32.597 17.1683C32.8628 17.0681 33.1576 17.0775 33.4165 17.1945C33.6754 17.3116 33.8772 17.5267 33.9774 17.7926C34.1636 18.2012 34.4683 18.5446 34.8519 18.778C35.2356 19.0115 35.6805 19.1243 36.129 19.1019C38.136 19.1019 39.9243 16.4652 35.7728 14.8324C30.4134 12.723 31.1634 7.92147 34.7454 6.65506C35.2087 6.49022 35.072 5.97459 35.0939 5.85975C35.0939 5.57547 35.2068 5.30284 35.4078 5.10182C35.6088 4.90081 35.8815 4.78788 36.1657 4.78788C36.45 4.78788 36.7226 4.90081 36.9237 5.10182C37.1247 5.30284 37.2376 5.57547 37.2376 5.85975C37.2556 5.93788 37.1493 6.44647 37.6056 6.58866C38.2257 6.77599 38.7955 7.10112 39.2722 7.53972C39.749 7.97833 40.1204 8.51906 40.3587 9.12147C40.4592 9.38741 40.4499 9.68238 40.3329 9.94149C40.2159 10.2006 40.0008 10.4026 39.7349 10.5031C39.4689 10.6036 39.174 10.5943 38.9149 10.4773C38.6557 10.3604 38.4537 10.1452 38.3532 9.87928C37.6173 7.92616 34.047 8.17928 34.047 10.5176C34.047 13.0176 40.4275 12.9082 40.4275 17.1535C40.4203 18.0144 40.1419 18.8511 39.6317 19.5445C39.1216 20.238 38.4057 20.7529 37.586 21.016C37.122 21.1801 37.2595 21.6965 37.2376 21.8113C37.2376 22.0956 37.1247 22.3682 36.9237 22.5692C36.7226 22.7703 36.45 22.8832 36.1657 22.8832C35.8815 22.8832 35.6088 22.7703 35.4078 22.5692C35.2068 22.3682 35.0939 22.0956 35.0939 21.8113ZM32.8978 47.0621C41.5353 46.4371 48.3712 38.1863 47.8243 29.0535C47.8152 28.7745 47.9153 28.5029 48.1033 28.2965C48.2913 28.0901 48.5525 27.9653 48.8311 27.9485C49.1098 27.9317 49.3841 28.0243 49.5955 28.2066C49.807 28.3889 49.939 28.6465 49.9634 28.9246C50.5884 39.3801 43.0048 48.4754 33.0532 49.2004C32.7697 49.221 32.4895 49.1281 32.2745 48.9422C32.0594 48.7563 31.927 48.4925 31.9064 48.209C31.8857 47.9254 31.9786 47.6453 32.1645 47.4302C32.3505 47.2151 32.6142 47.0827 32.8978 47.0621ZM0.80245 16.916C1.27847 12.2721 3.45572 7.96858 6.91495 4.83397C8.81751 3.09256 11.0647 1.77023 13.5108 0.952635C15.957 0.135044 18.5477 -0.15957 21.115 0.087876C21.3936 0.120184 21.6485 0.26046 21.8249 0.478592C22.0013 0.696724 22.0852 0.975325 22.0585 1.25459C22.0318 1.53386 21.8967 1.79153 21.6822 1.9723C21.4676 2.15307 21.1908 2.24253 20.911 2.22147C16.5503 1.81937 12.2082 3.16398 8.83787 5.96014C5.46753 8.75631 3.34439 12.7755 2.93448 17.1355C2.90007 17.4139 2.7579 17.6677 2.5385 17.8424C2.3191 18.0172 2.03993 18.099 1.76092 18.0703C1.4819 18.0415 1.22526 17.9046 1.04607 17.6888C0.866882 17.473 0.779419 17.1955 0.80245 16.916Z" fill="#FF06B7"></path></g><defs><clipPath id="clip0_352_29"><rect width="50" height="50" fill="white"></rect></clipPath></defs></svg>