<svg xmlns="http://www.w3.org/2000/svg" width="50" height="50" viewBox="0 0 50 50" fill="none"><path fill-rule="evenodd" clip-rule="evenodd" d="M33.4668 18.8762C32.5576 18.8762 31.6533 18.9622 30.7666 19.1311C30.9053 18.3342 30.9775 17.5159 30.9775 16.6799C30.9775 8.80298 24.5693 2.3938 16.6914 2.3938C8.81348 2.3938 2.40625 8.80298 2.40625 16.6799C2.40625 24.5569 8.81445 30.9661 16.6924 30.9661C17.6152 30.9661 18.5176 30.8772 19.3926 30.7092C19.2529 31.5159 19.1816 32.3372 19.1816 33.1624C19.1816 41.0393 25.5898 47.4485 33.4678 47.4485C41.3457 47.4485 47.7539 41.0403 47.7539 33.1624C47.7539 25.2844 41.3438 18.8762 33.4668 18.8762ZM3.57813 16.6799C3.57813 9.44946 9.46094 3.56567 16.6924 3.56567C23.9238 3.56567 29.8057 9.44946 29.8057 16.6799C29.8057 23.9114 23.9229 29.7942 16.6914 29.7942C9.45996 29.7942 3.57813 23.9114 3.57813 16.6799ZM33.4668 24.3225C38.3408 24.3225 42.3057 28.2874 42.3057 33.1614C42.3057 38.0354 38.3408 42.0002 33.4668 42.0002C28.5928 42.0002 24.6279 38.0354 24.6279 33.1614C24.6279 28.2883 28.5928 24.3225 33.4668 24.3225ZM33.4668 46.2756C26.2354 46.2756 20.3525 40.3928 20.3525 33.1614C20.3525 32.2336 20.4502 31.3098 20.6426 30.4094C22.0319 30.0081 23.352 29.3975 24.5576 28.5989C23.8535 29.968 23.4561 31.5188 23.4561 33.1614C23.4561 38.6809 27.9463 43.1721 33.4668 43.1721C38.9873 43.1721 43.4775 38.6809 43.4775 33.1614C43.4775 27.6418 38.9863 23.1506 33.4668 23.1506C31.7617 23.1506 30.1553 23.5793 28.749 24.3342C29.526 23.1147 30.1128 21.7841 30.4893 20.3879C31.4659 20.1614 32.4652 20.047 33.4678 20.0471C40.6992 20.0471 46.582 25.9299 46.582 33.1614C46.5811 40.3928 40.6982 46.2756 33.4668 46.2756ZM45.4473 5.77271C43.9805 5.77271 42.7598 6.83032 42.5059 8.22388L36.7197 2.43774C35.5527 1.27075 33.6582 1.27075 32.4912 2.43774C31.3242 3.60474 31.3242 5.49927 32.4912 6.66626L38.2773 12.4524C36.8838 12.7063 35.8262 13.927 35.8262 15.3938C35.8262 17.0442 37.166 18.384 38.8164 18.384H45.4482C45.834 18.384 46.2168 18.3098 46.5742 18.1643H46.5752C46.5967 18.1555 46.6191 18.1467 46.6406 18.137L46.6533 18.1321C46.6699 18.1252 46.6865 18.1174 46.7021 18.1096L46.7266 18.0979L46.752 18.0852C46.7686 18.0774 46.7852 18.0696 46.8008 18.0608L46.8105 18.0559C46.8311 18.0452 46.8525 18.0344 46.873 18.0227L46.877 18.0208C47.1289 17.884 47.3604 17.7102 47.5635 17.5071C47.7666 17.304 47.9395 17.0725 48.0771 16.8206L48.0791 16.8167C48.0898 16.7961 48.1016 16.7756 48.1123 16.7542L48.1172 16.7444C48.125 16.7278 48.1338 16.7122 48.1416 16.6956L48.1543 16.6702L48.1689 16.6379L48.1836 16.6047L48.1924 16.5842C48.2021 16.5627 48.2109 16.5403 48.2197 16.5188V16.5178C48.3652 16.1604 48.4395 15.7786 48.4395 15.3918V8.76294C48.4375 7.11255 47.0977 5.77271 45.4473 5.77271ZM47.2529 15.3948C47.2529 15.635 47.2061 15.8645 47.1201 16.0745V16.0754C47.1152 16.0872 47.1104 16.0989 47.1055 16.1116L47.0996 16.1243L47.0889 16.1497L47.0801 16.1682L47.0703 16.1877C47.0664 16.1965 47.0615 16.2053 47.0576 16.2131L47.0527 16.2229C47.0469 16.2336 47.041 16.2454 47.0352 16.2561L47.0332 16.26C46.9521 16.4084 46.8486 16.5491 46.7236 16.675C46.6012 16.798 46.4614 16.9024 46.3086 16.9846L46.3047 16.9866C46.2939 16.9924 46.2822 16.9983 46.2715 17.0042L46.2617 17.009C46.2529 17.0129 46.2441 17.0178 46.2363 17.0217L46.2168 17.0315L46.1982 17.0403C46.1895 17.0442 46.1816 17.0481 46.1729 17.051L46.1602 17.0569C46.1484 17.0618 46.1367 17.0667 46.124 17.0715H46.123C45.9131 17.1565 45.6836 17.2043 45.4434 17.2043H38.8115C37.8145 17.2043 37.0059 16.3958 37.0059 15.3987C37.0059 14.4016 37.8145 13.593 38.8115 13.593H41.084L33.3242 5.83325C32.6191 5.12817 32.6191 3.98462 33.3242 3.27954C34.0293 2.57446 35.1729 2.57446 35.8779 3.27954L43.6377 11.0393V8.76294C43.6377 7.76587 44.4463 6.95728 45.4434 6.95728C46.4404 6.95728 47.249 7.76587 47.249 8.76294V15.3948H47.2529ZM11.7236 37.5471C13.1172 37.2932 14.1748 36.0725 14.1748 34.6057C14.1748 32.9553 12.835 31.6155 11.1846 31.6155H4.55274C4.16699 31.6155 3.78418 31.6897 3.42676 31.8352H3.42578C3.4043 31.844 3.38184 31.8528 3.36035 31.8625L3.34766 31.8684C3.33106 31.8752 3.31445 31.8831 3.29883 31.8909L3.27441 31.9026L3.24902 31.9153C3.23242 31.9231 3.21582 31.9309 3.2002 31.9397L3.19043 31.9446C3.16992 31.9553 3.14844 31.9661 3.12793 31.9778H3.125C2.87305 32.1145 2.6416 32.2883 2.43848 32.4915C2.23535 32.6946 2.0625 32.926 1.92481 33.178L1.92285 33.1819C1.91113 33.2024 1.90039 33.2229 1.88965 33.2444L1.88477 33.2541C1.87695 33.2708 1.86816 33.2864 1.86035 33.303L1.84766 33.3284L1.83301 33.3606L1.81836 33.3938L1.80957 33.4143C1.79981 33.4358 1.79102 33.4583 1.78223 33.4797V33.4807C1.63684 33.8383 1.56221 34.2207 1.5625 34.6067V41.2385C1.5625 42.8889 2.90234 44.2288 4.55274 44.2288C6.01953 44.2288 7.24023 43.1711 7.49414 41.7776L13.2803 47.5637C14.4473 48.7307 16.3418 48.7307 17.5088 47.5637C18.6758 46.3967 18.6758 44.5022 17.5088 43.3352L11.7236 37.5471ZM16.6719 46.7239C15.9668 47.429 14.8232 47.429 14.1182 46.7239L6.3584 38.9641V41.2366C6.3584 42.2336 5.54981 43.0422 4.55274 43.0422C3.55566 43.0422 2.74707 42.2336 2.74707 41.2366V34.6047C2.74707 34.3645 2.79395 34.135 2.87988 33.9251V33.9241L2.89453 33.8889L2.89941 33.8762C2.90332 33.8674 2.90723 33.8596 2.91113 33.8508L2.91992 33.8323L2.92969 33.8127C2.93359 33.804 2.93848 33.7952 2.94238 33.7874L2.94727 33.7776C2.95313 33.7668 2.95899 33.7551 2.96484 33.7444L2.9668 33.7405C3.04785 33.592 3.15137 33.4514 3.27637 33.3254C3.40234 33.1995 3.54199 33.0959 3.69141 33.0159L3.69531 33.0139C3.70606 33.0081 3.71777 33.0022 3.72852 32.9963L3.73828 32.9915C3.74707 32.9875 3.75586 32.9827 3.76367 32.9788L3.7832 32.969L3.80176 32.9602L3.82715 32.9495L3.83984 32.9436C3.85156 32.9387 3.86328 32.9338 3.87598 32.929H3.87695C4.08691 32.844 4.31641 32.7961 4.55664 32.7961H11.1885C12.1855 32.7961 12.9941 33.6047 12.9941 34.6018C12.9941 35.5989 12.1855 36.4075 11.1885 36.4075H8.91211L16.6719 44.1672C17.376 44.8752 17.376 46.0198 16.6719 46.7239ZM16.6924 6.66919C11.1729 6.66919 6.68164 11.1594 6.68164 16.6799C6.68164 22.2004 11.1719 26.6907 16.6924 26.6907C22.2129 26.6907 26.7031 22.1995 26.7031 16.6799C26.7031 11.1604 22.2119 6.66919 16.6924 6.66919ZM16.6924 25.5188C11.8184 25.5188 7.85352 21.554 7.85352 16.6799C7.85352 11.8059 11.8184 7.84106 16.6924 7.84106C21.5664 7.84106 25.5313 11.8059 25.5313 16.6799C25.5303 21.554 21.5654 25.5188 16.6924 25.5188ZM14.625 14.1077C14.625 14.8499 14.8936 16.094 16.6924 16.094C18.6602 16.094 19.9316 17.3333 19.9316 19.2522C19.9316 20.9934 18.4785 22.4104 16.6924 22.4104C14.9063 22.4104 13.4531 20.9934 13.4531 19.2522C13.4531 18.929 13.7158 18.6663 14.0391 18.6663C14.3623 18.6663 14.625 18.929 14.625 19.2522C14.625 20.3479 15.5527 21.2385 16.6924 21.2385C17.832 21.2385 18.7598 20.3479 18.7598 19.2522C18.7598 18.51 18.4912 17.2659 16.6924 17.2659C14.7246 17.2659 13.4531 16.0266 13.4531 14.1077C13.4531 12.5618 14.5996 11.2717 16.1064 11.0022V9.73462C16.1064 9.41138 16.3691 9.14868 16.6924 9.14868C17.0156 9.14868 17.2783 9.41138 17.2783 9.73462V11.0022C18.7852 11.2717 19.9316 12.5618 19.9316 14.1077C19.9316 14.4309 19.6689 14.6936 19.3457 14.6936C19.0225 14.6936 18.7598 14.4309 18.7598 14.1077C18.7598 13.012 17.832 12.1213 16.6924 12.1213C15.5518 12.1213 14.625 13.0129 14.625 14.1077ZM30.2568 36.385C29.9023 36.385 29.6152 36.6721 29.6152 37.0266C29.6152 37.3811 29.9023 37.6682 30.2568 37.6682H31.29V38.7014C31.29 39.0559 31.5771 39.343 31.9316 39.343C32.2861 39.343 32.5732 39.0559 32.5732 38.7014V37.6682H34.1006V38.7014C34.1006 39.0559 34.3877 39.343 34.7422 39.343C35.0967 39.343 35.3838 39.0559 35.3838 38.7014V37.6038L35.6533 37.5012C35.9932 37.3713 36.3027 37.1702 36.5605 36.9124C37.0449 36.428 37.3164 35.7786 37.3164 35.094C37.3164 34.4827 37.1006 33.8987 36.7051 33.4329L36.4756 33.1614L36.7051 32.8899C37.0996 32.4241 37.3164 31.8391 37.3164 31.2288C37.3164 30.5442 37.0449 29.8938 36.5605 29.4104C36.3027 29.1526 35.9941 28.9514 35.6533 28.8215L35.3838 28.719V27.6213C35.3838 27.2668 35.0967 26.9797 34.7422 26.9797C34.3877 26.9797 34.1006 27.2668 34.1006 27.6213V28.6545H32.5732V27.6213C32.5732 27.2668 32.2861 26.9797 31.9316 26.9797C31.5771 26.9797 31.29 27.2668 31.29 27.6213V28.6545H30.2568C29.9023 28.6545 29.6152 28.9416 29.6152 29.2961C29.6152 29.6506 29.9023 29.9377 30.2568 29.9377H31.29V36.384H30.2568V36.385ZM32.5752 29.9377H34.7441C35.0869 29.9377 35.4131 30.0754 35.6553 30.3176C35.8975 30.5598 36.0352 30.886 36.0352 31.2288C36.0352 31.5715 35.8975 31.8977 35.6553 32.1399C35.4131 32.3821 35.0869 32.5198 34.7441 32.5198H32.5752V29.9377ZM32.5752 33.804H34.7441C35.0869 33.804 35.4131 33.9417 35.6553 34.1838C35.8975 34.426 36.0352 34.7522 36.0352 35.095C36.0352 35.4377 35.8975 35.7639 35.6553 36.0061C35.4131 36.2483 35.0869 36.386 34.7441 36.386H32.5752V33.804Z" fill="#FF06B7"></path></svg>