<svg xmlns="http://www.w3.org/2000/svg" width="50" height="50" viewBox="0 0 50 50" fill="none"><g clip-path="url(#clip0_352_34)"><path d="M14.2372 12.1933L19.0234 9.43477C19.0824 9.40077 19.1341 9.35547 19.1756 9.30147C19.2171 9.24747 19.2475 9.18583 19.2652 9.12006C19.2828 9.05429 19.2874 8.98569 19.2785 8.91817C19.2696 8.85065 19.2475 8.78554 19.2135 8.72656C19.0704 8.47866 18.7532 8.39288 18.5053 8.53643L13.7192 11.295C13.6602 11.329 13.6084 11.3743 13.5669 11.4283C13.5255 11.4823 13.495 11.5439 13.4774 11.6097C13.4597 11.6755 13.4552 11.7441 13.464 11.8116C13.4729 11.8791 13.495 11.9442 13.529 12.0032C13.5978 12.1223 13.711 12.2091 13.8438 12.2448C13.9766 12.2804 14.1181 12.2619 14.2372 12.1933ZM36.2579 18.5479C36.1892 18.4288 36.076 18.3419 35.9432 18.3061C35.8105 18.2704 35.6689 18.2888 35.5497 18.3573L33.6416 19.4567C33.5225 19.5253 33.4355 19.6385 33.3997 19.7713C33.364 19.9041 33.3824 20.0457 33.451 20.1649C33.5197 20.284 33.6329 20.371 33.7657 20.4068C33.8985 20.4425 34.04 20.4241 34.1592 20.3555L36.0673 19.2561C36.1864 19.1874 36.2734 19.0743 36.3092 18.9415C36.3449 18.8087 36.3265 18.6671 36.2579 18.5479ZM30.7634 9.43477L35.5495 12.1933C35.6085 12.2273 35.6736 12.2494 35.7411 12.2583C35.8086 12.2671 35.8772 12.2626 35.943 12.2449C36.0088 12.2273 36.0704 12.1968 36.1244 12.1554C36.1784 12.1139 36.2237 12.0622 36.2577 12.0032C36.2917 11.9442 36.3138 11.8791 36.3227 11.8116C36.3315 11.7441 36.327 11.6755 36.3093 11.6097C36.2917 11.5439 36.2612 11.4823 36.2198 11.4283C36.1783 11.3743 36.1266 11.329 36.0676 11.295L31.2815 8.53643C31.2225 8.50232 31.1574 8.48019 31.0898 8.47129C31.0223 8.46239 30.9537 8.4669 30.8879 8.48456C30.8221 8.50223 30.7605 8.53269 30.7065 8.57422C30.6525 8.61574 30.6072 8.66751 30.5732 8.72656C30.5392 8.78554 30.5171 8.85065 30.5083 8.91817C30.4994 8.98569 30.5039 9.05429 30.5216 9.12006C30.5392 9.18583 30.5697 9.24747 30.6112 9.30147C30.6526 9.35547 30.7044 9.40077 30.7634 9.43477ZM13.7195 19.2561L15.6275 20.3555C15.7467 20.424 15.8883 20.4424 16.021 20.4067C16.1538 20.3709 16.267 20.284 16.3357 20.1649C16.4043 20.0457 16.4227 19.9041 16.387 19.7713C16.3512 19.6385 16.2642 19.5253 16.1451 19.4567L14.237 18.3573C14.1178 18.2887 13.9763 18.2703 13.8435 18.306C13.7107 18.3418 13.5975 18.4288 13.5288 18.5479C13.4603 18.6671 13.4418 18.8087 13.4776 18.9415C13.5133 19.0743 13.6003 19.1874 13.7195 19.2561ZM14.237 31.9188L16.1451 30.8194C16.2643 30.7507 16.3513 30.6376 16.387 30.5048C16.4228 30.3719 16.4043 30.2304 16.3357 30.1112C16.267 29.992 16.1539 29.905 16.0211 29.8693C15.8883 29.8336 15.7467 29.852 15.6275 29.9206L13.7195 31.0199C13.6003 31.0886 13.5133 31.2018 13.4775 31.3346C13.4418 31.4674 13.4602 31.6089 13.5288 31.7282C13.5975 31.8473 13.7107 31.9343 13.8435 31.97C13.9763 32.0057 14.1178 31.9873 14.237 31.9188ZM35.555 38.0824L30.7637 40.841C30.6445 40.9097 30.5575 41.0228 30.5217 41.1556C30.486 41.2884 30.5044 41.43 30.573 41.5492C30.6417 41.6683 30.7549 41.7553 30.8877 41.791C31.0205 41.8268 31.162 41.8084 31.2813 41.7398L36.0726 38.9813C36.1918 38.9126 36.2788 38.7994 36.3146 38.6666C36.3503 38.5338 36.3319 38.3923 36.2633 38.2731C36.1945 38.154 36.0813 38.0671 35.9486 38.0314C35.8158 37.9956 35.6743 38.014 35.555 38.0824ZM19.0231 40.841L14.2317 38.0824C13.9836 37.9404 13.6665 38.025 13.5235 38.2731C13.4549 38.3923 13.4365 38.5338 13.4722 38.6666C13.508 38.7994 13.595 38.9126 13.7141 38.9813L18.5055 41.7398C18.6244 41.8045 18.7639 41.8201 18.8942 41.7833C19.0245 41.7465 19.1353 41.6603 19.2028 41.543C19.2704 41.4256 19.2894 41.2865 19.2558 41.1554C19.2223 41.0242 19.1387 40.9114 19.0231 40.841ZM36.0672 31.0199L34.1591 29.9206C34.0399 29.8519 33.8984 29.8334 33.7656 29.8692C33.6327 29.9049 33.5196 29.992 33.4509 30.1112C33.3823 30.2304 33.3638 30.372 33.3996 30.5048C33.4353 30.6376 33.5224 30.7508 33.6415 30.8194L35.5496 31.9188C35.6688 31.9873 35.8104 32.0057 35.9431 31.97C36.0759 31.9342 36.1891 31.8473 36.2578 31.7282C36.3264 31.609 36.3449 31.4674 36.3092 31.3346C36.2734 31.2018 36.1864 31.0886 36.0672 31.0199ZM17.4201 29.1615C17.4201 29.2525 17.4441 29.342 17.4896 29.4208C17.5352 29.4997 17.6007 29.5651 17.6796 29.6106L24.6342 33.6197C24.7754 33.7011 24.9798 33.7193 25.1523 33.6197L32.107 29.6106C32.1858 29.5651 32.2514 29.4997 32.2969 29.4208C32.3425 29.342 32.3664 29.2525 32.3664 29.1615V21.1146C32.3664 20.9341 32.2491 20.7473 32.107 20.6654L25.1523 16.6564C25.0736 16.6108 24.9842 16.5869 24.8933 16.5869C24.8023 16.5869 24.713 16.6108 24.6342 16.6564L17.6796 20.6654C17.5255 20.754 17.4201 20.9505 17.4201 21.1146V29.1615ZM18.4572 22.0134L24.3749 25.4246V32.2731L18.4572 28.8619V22.0134ZM25.4119 32.2731V25.4246L31.3295 22.0134V28.8619L25.4119 32.2731ZM24.8933 17.704L30.8111 21.1153L24.8933 24.5266L18.9755 21.1153L24.8933 17.704ZM20.5779 8.24777L24.6343 10.586C24.7131 10.6314 24.8024 10.6553 24.8934 10.6553C24.9843 10.6553 25.0736 10.6314 25.1524 10.586L29.2088 8.24777C29.2877 8.2023 29.3533 8.13685 29.3988 8.058C29.4444 7.97916 29.4683 7.8897 29.4683 7.79865V3.1049C29.4683 2.92508 29.3518 2.73815 29.2088 2.65578L25.1524 0.317562C25.0737 0.272024 24.9843 0.248047 24.8934 0.248047C24.8024 0.248047 24.7131 0.272024 24.6343 0.317562L20.5779 2.65578C20.4357 2.73757 20.3184 2.92663 20.3184 3.1049V7.79855C20.3184 7.88962 20.3424 7.97909 20.3879 8.05795C20.4335 8.13681 20.499 8.20228 20.5779 8.24777ZM21.3555 4.00335L24.3748 5.74373V9.23939L21.3555 7.4991V4.00335ZM25.4119 9.23939V5.74373L28.4312 4.00335V7.4991L25.4119 9.23939ZM24.8933 1.36529L27.9123 3.10549L24.8933 4.84568L21.8743 3.10549L24.8933 1.36529ZM12.1641 12.4915L8.10742 10.1533C8.02869 10.1078 7.93934 10.0838 7.84838 10.0838C7.75743 10.0838 7.66808 10.1078 7.58934 10.1533L3.53291 12.4915C3.39189 12.5727 3.27344 12.7611 3.27344 12.9406V17.6343C3.27343 17.7253 3.29741 17.8148 3.34296 17.8936C3.38851 17.9725 3.45403 18.0379 3.53291 18.0834L7.58954 20.4216C7.6683 20.4671 7.75764 20.491 7.84858 20.491C7.93951 20.491 8.02885 20.4671 8.10762 20.4216L12.164 18.0834C12.2429 18.0379 12.3085 17.9725 12.354 17.8936C12.3996 17.8148 12.4235 17.7253 12.4235 17.6343V12.9406C12.4236 12.7613 12.3071 12.5739 12.1641 12.4915ZM7.84843 11.201L10.8677 12.9412L7.84872 14.6814L4.82943 12.9412L7.84843 11.201ZM4.31057 13.8391L7.33016 15.5796V19.0752L4.31057 17.3348V13.8391ZM8.36729 19.0752V15.5796L11.3866 13.8392V17.3349L8.36729 19.0752ZM46.2536 12.4915L42.1973 10.1533C42.1186 10.1078 42.0292 10.0838 41.9383 10.0838C41.8473 10.0838 41.758 10.1078 41.6792 10.1533L37.6226 12.4915C37.4811 12.573 37.3631 12.761 37.3631 12.9406V17.6343C37.3631 17.7253 37.3871 17.8148 37.4326 17.8936C37.4782 17.9725 37.5437 18.0379 37.6226 18.0834L41.6792 20.4216C41.758 20.467 41.8473 20.4909 41.9383 20.4909C42.0292 20.4909 42.1185 20.467 42.1973 20.4216L46.2537 18.0834C46.3326 18.0379 46.3981 17.9725 46.4437 17.8936C46.4892 17.8148 46.5132 17.7253 46.5132 17.6343V12.9406C46.5132 12.763 46.3981 12.5748 46.2536 12.4915ZM41.9383 11.201L44.9573 12.9412L41.9383 14.6814L38.919 12.9412L41.9383 11.201ZM38.4002 13.8391L41.4197 15.5796V19.0752L38.4002 17.3348V13.8391ZM42.4568 19.0752V15.5796L45.4761 13.8392V17.3349L42.4568 19.0752ZM12.1641 32.183L8.10752 29.8448C8.02878 29.7993 7.93944 29.7753 7.84848 29.7753C7.75752 29.7753 7.66818 29.7993 7.58944 29.8448L3.53301 32.183C3.37711 32.2727 3.27353 32.4705 3.27353 32.6321V37.3258C3.27353 37.4168 3.29751 37.5063 3.34306 37.5851C3.38861 37.664 3.45413 37.7294 3.53301 37.7749L7.58963 40.1131C7.6684 40.1586 7.75774 40.1825 7.84867 40.1825C7.93961 40.1825 8.02895 40.1586 8.10771 40.1131L12.1641 37.7749C12.243 37.7294 12.3086 37.664 12.3541 37.5851C12.3997 37.5063 12.4236 37.4168 12.4236 37.3258V32.6321C12.4236 32.4532 12.3073 32.2655 12.1641 32.183ZM7.84843 30.8925L10.8677 32.6327L7.84872 34.3729L4.82943 32.6327L7.84843 30.8925ZM4.31057 33.5306L7.33016 35.2711V38.7667L4.31057 37.0263V33.5306ZM8.36729 38.7667V35.2711L11.3866 33.5307V37.0264L8.36729 38.7667ZM46.2536 32.183L42.1972 29.8448C42.1185 29.7993 42.0291 29.7753 41.9382 29.7753C41.8472 29.7753 41.7579 29.7993 41.6791 29.8448L37.6225 32.183C37.481 32.2644 37.363 32.4533 37.363 32.6321V37.3258C37.363 37.4168 37.387 37.5063 37.4326 37.5851C37.4781 37.664 37.5436 37.7294 37.6225 37.7749L41.6791 40.1131C41.7579 40.1585 41.8472 40.1824 41.9382 40.1824C42.0291 40.1824 42.1184 40.1585 42.1972 40.1131L46.2536 37.7749C46.3325 37.7294 46.398 37.664 46.4436 37.5851C46.4892 37.5063 46.5131 37.4168 46.5131 37.3258V32.6321C46.5132 32.4519 46.3957 32.2648 46.2536 32.183ZM41.9383 30.8925L44.9573 32.6327L41.9383 34.3729L38.919 32.6327L41.9383 30.8925ZM38.4002 33.5306L41.4197 35.2711V38.7667L38.4002 37.0263V33.5306ZM42.4568 38.7667V35.2711L45.4761 33.5307V37.0264L42.4568 38.7667ZM29.2087 42.0282L25.1523 39.69C25.0736 39.6444 24.9842 39.6205 24.8933 39.6205C24.8023 39.6205 24.713 39.6444 24.6342 39.69L20.5778 42.0282C20.4354 42.1103 20.3183 42.2993 20.3183 42.4773V47.171C20.3183 47.262 20.3423 47.3515 20.3879 47.4303C20.4334 47.5091 20.4989 47.5746 20.5778 47.6201L24.6342 49.9583C24.8072 50.0581 25.0079 50.0415 25.1523 49.9583L29.2087 47.6201C29.2876 47.5746 29.3532 47.5092 29.3987 47.4303C29.4443 47.3515 29.4682 47.262 29.4682 47.171V42.4773C29.4683 42.2974 29.3509 42.11 29.2087 42.0282ZM24.8933 40.7377L27.9123 42.4779L24.8933 44.2181L21.8743 42.4779L24.8933 40.7377ZM21.3555 43.3758L24.3748 45.1161V48.6118L21.3555 46.8715V43.3758ZM25.4119 48.6118V45.1161L28.4312 43.3758V46.8715L25.4119 48.6118Z" fill="#FF06B7"></path></g><defs><clipPath id="clip0_352_34"><rect width="50" height="50" fill="white"></rect></clipPath></defs></svg>