<svg xmlns="http://www.w3.org/2000/svg" width="50" height="50" viewBox="0 0 50 50" fill="none"><path fill-rule="evenodd" clip-rule="evenodd" d="M35.5478 13.2988H34.3136V15.7555H36.4013C38.0045 15.7555 38.0045 13.2988 36.4013 13.2988H35.5478ZM14.7058 38.8697C5.8246 38.8697 -0.611382 30.4152 1.66082 21.9031C4.0253 13.1027 14.1983 9.19264 21.8338 13.9677C21.6493 8.99656 24.1868 4.33682 28.5697 1.81086C35.0057 -1.91463 43.264 0.299906 46.9895 6.73589C50.692 13.1488 48.489 21.4187 42.0876 25.1442C50.4843 30.4729 50.4728 43.0681 41.6031 48.1892C32.8604 53.2296 21.8108 47.1511 21.384 37.0934C19.3425 38.2584 17.0357 38.8697 14.7058 38.8697ZM23.2525 14.9827C26.1937 17.3933 28.0045 21.0612 28.1545 24.8097C31.9838 22.6182 36.7589 22.4683 40.7035 24.3714C46.9665 21.2688 49.3309 13.4602 45.8361 7.40487C42.4797 1.60325 35.0403 -0.392136 29.2387 2.96427C24.9711 5.42101 22.6412 10.1154 23.2525 14.9827ZM23.1833 35.8593L22.7104 36.2284C22.4797 45.6632 32.7566 51.7532 40.9342 47.0358C46.7358 43.6794 48.7312 36.2399 45.3863 30.4383C41.88 24.3714 33.91 22.5606 28.1314 26.3899C27.8546 30.1384 26.0668 33.5294 23.1833 35.8593ZM14.6712 13.2295C5.39784 13.2295 -0.507576 23.368 4.1637 31.4648C7.98147 38.0854 16.8511 39.481 22.5374 34.6598C26.9434 30.9458 28.1891 24.4752 25.2133 19.308C23.0449 15.5594 19.008 13.2295 14.6712 13.2295ZM14.7058 35.94C10.9342 35.94 7.42783 33.9216 5.54779 30.669C1.46474 23.5756 6.70119 14.8443 14.6712 14.8443C18.4428 14.8443 21.9492 16.8628 23.8292 20.1154C27.9123 27.1973 22.6643 35.94 14.7058 35.94ZM14.6712 16.1707C7.71618 16.1707 3.12564 23.8062 6.70119 30C9.25021 34.406 14.9365 35.8939 19.2963 33.368C23.7023 30.8305 25.2133 25.1788 22.6758 20.7843C21.0264 17.9354 17.9699 16.1707 14.6712 16.1707ZM40.5882 22.5029C39.9884 22.5029 35.9053 20.2999 30.1729 22.18C29.8038 22.2953 29.4117 22.0761 29.3194 21.7071C28.6158 18.9158 27.0818 16.3207 24.9826 14.3599C24.8442 14.233 24.775 14.0715 24.7635 13.8985C24.5328 7.9239 29.3771 2.92966 35.294 2.92966C39.0657 2.92966 42.572 4.95965 44.4521 8.21225C47.2894 13.1373 45.7554 19.3772 40.9457 22.4106C40.8304 22.4683 40.715 22.5029 40.5882 22.5029ZM34.8557 20.1038C36.7935 20.1038 38.685 20.4383 40.5074 21.0958C44.4982 18.3853 45.7323 13.0796 43.2987 8.86969C40.7612 4.48676 35.0634 2.9758 30.7035 5.50175C27.8085 7.17419 26.0553 10.2422 26.0899 13.5756C28.1083 15.5248 29.6193 18.0162 30.4267 20.7036C31.8569 20.2999 33.3448 20.1038 34.8557 20.1038ZM34.8788 47.0588C29.3771 47.0588 24.7635 42.7682 24.3367 37.3472C24.3252 37.128 24.4059 36.932 24.5674 36.7936C27.2664 34.4522 29.0541 31.2111 29.5962 27.6586C29.6308 27.451 29.7577 27.278 29.9422 27.1742C34.9019 24.5675 41.1764 26.3553 43.9907 31.2342C48.0853 38.3161 42.8373 47.0588 34.8788 47.0588ZM25.6977 37.5663C26.4474 44.1407 33.7831 47.774 39.4694 44.4983C43.8754 41.9493 45.3863 36.3091 42.8488 31.9031C40.4382 27.7394 35.1556 26.1361 30.8534 28.2007C30.2306 31.8109 28.4082 35.1096 25.6977 37.5663ZM14.6827 33.1719C14.4636 33.1719 14.256 33.0565 14.1291 32.872L8.97339 25.0404L8.86959 24.6713L9.03106 24.2445L14.1752 17.8547C14.4175 17.5433 14.948 17.5433 15.2018 17.8547L20.369 24.2676C20.542 24.4983 20.5536 24.8212 20.3805 25.0635L15.2479 32.872C15.121 33.0565 14.9134 33.1719 14.6827 33.1719ZM11.4993 26.4591L14.6827 31.3034L17.8777 26.4591C17.3356 26.7359 15.3056 27.8662 14.9019 27.9931C14.7289 28.0508 14.5443 28.0392 14.3829 27.9585L11.4993 26.4591ZM10.5651 24.4637L14.6827 26.609L18.8119 24.4637L14.6827 19.331L10.5651 24.4637ZM34.8673 42.0185C34.0368 42.0185 34.2098 40.9919 34.2098 40.4383C33.6447 40.4383 32.572 40.6113 32.572 39.7693C32.572 39.4003 32.8719 39.1004 33.241 39.1004H35.8361V37.1742H33.241C32.8719 37.1742 32.572 36.8743 32.572 36.5167C32.572 32.3414 32.2145 32.5836 34.2098 32.5836C34.2098 32.03 34.0368 31.0035 34.8673 31.0035C35.6977 31.0035 35.5363 32.03 35.5363 32.5836C36.0899 32.5836 37.1625 32.4106 37.1625 33.2526C37.1625 33.6217 36.8742 33.9216 36.5051 33.9216H33.91V35.8478H36.5051C36.8742 35.8478 37.1625 36.1477 37.1625 36.5167C37.1625 40.6805 37.5316 40.4383 35.5363 40.4383C35.5363 40.9919 35.6977 42.0185 34.8673 42.0185ZM33.6447 17.0819C32.9296 17.0819 31.6608 17.3126 31.6608 16.4245C31.6608 15.6748 32.4682 15.7555 32.9872 15.7555V9.51559C32.4682 9.51559 31.6608 9.5848 31.6608 8.84662C31.6608 7.9585 32.9296 8.17765 33.6447 8.17765H33.933C33.933 7.67015 33.8523 6.86277 34.5905 6.86277C35.3402 6.86277 35.2594 7.67015 35.2594 8.17765H35.5478C37.67 8.17765 38.8119 10.6229 37.6008 12.2607C39.873 13.4833 39.0887 17.0819 36.4013 17.0819H35.2594C35.2594 17.624 35.3978 18.5813 34.5905 18.5813C33.7946 18.5813 33.933 17.624 33.933 17.0819H33.6447ZM34.3136 11.9723H35.5709C37.151 11.9493 37.1395 9.51559 35.5478 9.51559H34.3136V11.9723Z" fill="#FF06B7"></path></svg>