<svg xmlns="http://www.w3.org/2000/svg" width="50" height="50" viewBox="0 0 50 50" fill="none"><g clip-path="url(#clip0_352_97)"><path d="M42.7563 35.9032C41.1125 35.9032 39.6024 36.4854 38.4204 37.4537L33.8308 32.864C35.2846 31.2333 36.2942 29.199 36.6689 26.9523L41.9694 28.0027C42.0628 29.0576 42.8397 29.9712 43.9296 30.1871C44.0895 30.2187 44.2486 30.234 44.4057 30.234C45.5486 30.234 46.573 29.4266 46.8035 28.2638C47.0656 26.9411 46.2027 25.6519 44.8802 25.3898C43.7907 25.1736 42.7238 25.722 42.2352 26.6616L36.8162 25.5878C36.8258 25.3931 36.8309 25.1972 36.8309 25C36.8309 23.0906 36.3756 21.2858 35.5688 19.6874L40.4907 16.8457C40.9017 17.2997 41.4341 17.6274 42.0395 17.7896C42.3129 17.8632 42.5947 17.9005 42.8777 17.9007C43.4354 17.9007 43.9857 17.7544 44.4815 17.4682C46.0183 16.581 46.5466 14.6089 45.6595 13.0722C45.2297 12.3277 44.5357 11.7952 43.7055 11.5728C42.8754 11.3503 42.0079 11.4645 41.2636 11.8942C40.5191 12.324 39.9866 13.018 39.7642 13.8482C39.602 14.4538 39.6195 15.0787 39.8072 15.6616L34.8832 18.5045C33.4316 16.3032 31.2654 14.6133 28.7173 13.7678L30.0452 8.81201C30.1777 8.8248 30.3118 8.83184 30.4476 8.83184C32.7428 8.83184 34.6102 6.96445 34.6102 4.66924C34.6102 2.37402 32.7428 0.506641 30.4476 0.506641C28.1523 0.506641 26.285 2.37402 26.285 4.66924C26.285 6.3502 27.2871 7.80068 28.7249 8.45713L27.3969 13.4132C26.6083 13.2505 25.8052 13.1687 25 13.169C21.9837 13.169 19.2279 14.3043 17.136 16.1692L12.5464 11.5796C13.5147 10.3976 14.0969 8.8875 14.0969 7.24375C14.0969 3.46494 11.0226 0.390625 7.24375 0.390625C3.46494 0.390625 0.390625 3.46504 0.390625 7.24385C0.390625 11.0227 3.46494 14.097 7.24375 14.097C8.8875 14.097 10.3976 13.5148 11.5796 12.5465L16.1692 17.1361C14.7155 18.7668 13.7058 20.8011 13.3311 23.0478L8.03057 21.9974C7.93721 20.9425 7.16025 20.0289 6.07041 19.813C4.74766 19.5508 3.45859 20.4137 3.19639 21.7363C2.93428 23.059 3.79717 24.3482 5.11973 24.6103C5.27653 24.6415 5.43602 24.6572 5.5959 24.6572C6.50986 24.6572 7.34687 24.1399 7.76387 23.3384L13.1836 24.4124C13.174 24.6071 13.1689 24.803 13.1689 25.0002C13.1689 26.9096 13.6242 28.7144 14.431 30.3128L9.50908 33.1545C9.09814 32.7005 8.56572 32.3728 7.96025 32.2105C7.12998 31.988 6.2627 32.1022 5.51836 32.5319C3.98164 33.4191 3.45332 35.3912 4.34043 36.9279C4.77021 37.6724 5.46416 38.2049 6.29443 38.4273C6.56777 38.5009 6.84957 38.5382 7.13262 38.5384C7.69023 38.5384 8.24062 38.3921 8.73643 38.1059C9.48086 37.6761 10.0134 36.9821 10.2358 36.1519C10.398 35.5463 10.3805 34.9214 10.1928 34.3385L15.1168 31.4956C16.5684 33.6969 18.7345 35.3867 21.2827 36.2322L19.9549 41.1881C19.8212 41.175 19.6869 41.1684 19.5525 41.1683C17.2573 41.1683 15.3899 43.0355 15.3899 45.3309C15.3899 47.6262 17.2573 49.4935 19.5525 49.4935C21.8478 49.4935 23.7151 47.6261 23.7151 45.3309C23.7151 43.6498 22.713 42.1994 21.2752 41.543L22.6032 36.5869C23.3918 36.7496 24.195 36.8315 25.0002 36.8312C28.0165 36.8312 30.7723 35.6959 32.8642 33.831L37.4538 38.4206C36.4854 39.6026 35.9033 41.1127 35.9033 42.7564C35.9033 46.5353 38.9776 49.6096 42.7564 49.6096C46.5353 49.6096 49.6096 46.5353 49.6096 42.7564C49.6096 38.9776 46.5353 35.9033 42.7564 35.9033L42.7563 35.9032ZM43.3473 27.579C43.3744 27.44 43.4289 27.3077 43.5075 27.1899C43.5861 27.0721 43.6873 26.971 43.8053 26.8926C43.9228 26.8135 44.0548 26.7584 44.1937 26.7307C44.3326 26.703 44.4756 26.7031 44.6145 26.7311C44.897 26.787 45.1407 26.9496 45.3009 27.189C45.461 27.4283 45.5185 27.7157 45.4624 27.9982C45.3468 28.5812 44.7783 28.9618 44.1953 28.8462C43.6121 28.7307 43.2317 28.1622 43.3473 27.5791V27.579ZM41.9472 13.0784C42.1574 12.9563 42.3898 12.8771 42.6309 12.8454C42.872 12.8137 43.117 12.83 43.3517 12.8936C43.5867 12.9559 43.8071 13.0642 44 13.2122C44.1929 13.3602 44.3546 13.545 44.4756 13.756C44.9858 14.6397 44.6819 15.774 43.798 16.2844C43.5878 16.4065 43.3554 16.4858 43.1143 16.5175C42.8732 16.5493 42.6283 16.5329 42.3936 16.4693C42.1585 16.407 41.9382 16.2987 41.7452 16.1507C41.5523 16.0026 41.3907 15.8178 41.2696 15.6069C40.7594 14.7231 41.0633 13.5889 41.9472 13.0785V13.0784ZM27.6521 4.66943C27.6521 3.12803 28.9062 1.87402 30.4476 1.87402C31.989 1.87402 33.243 3.12803 33.243 4.66943C33.243 6.21084 31.989 7.46484 30.4476 7.46484C28.9062 7.46484 27.6521 6.21084 27.6521 4.66943ZM6.65273 22.4212C6.62556 22.5602 6.57109 22.6925 6.49247 22.8103C6.41386 22.9281 6.31266 23.0292 6.19473 23.1076C6.07724 23.1867 5.94522 23.2417 5.80632 23.2695C5.66742 23.2972 5.5244 23.2971 5.38555 23.2691C5.10303 23.2132 4.85928 23.0506 4.69912 22.8112C4.53896 22.5719 4.48154 22.2845 4.5376 22.002C4.65322 21.4189 5.22178 21.0382 5.80469 21.154C6.38789 21.2695 6.76826 21.8381 6.65273 22.4212ZM8.05283 36.9218C7.84258 37.0439 7.61019 37.1232 7.3691 37.1549C7.12802 37.1866 6.88304 37.1702 6.64834 37.1066C6.41327 37.0444 6.19289 36.9361 5.99996 36.7881C5.80704 36.64 5.6454 36.4552 5.52441 36.2442C5.01416 35.3605 5.31807 34.2262 6.20195 33.7158C6.48224 33.5535 6.80042 33.4681 7.12432 33.4682C7.76445 33.4682 8.38789 33.8002 8.73037 34.3933C9.24063 35.2771 8.93672 36.4113 8.05283 36.9217V36.9218ZM22.3478 45.3308C22.3478 46.8722 21.0938 48.1262 19.5523 48.1262C18.0109 48.1262 16.7569 46.8722 16.7569 45.3308C16.7569 43.7894 18.0109 42.5354 19.5523 42.5354C21.0938 42.5354 22.3478 43.7894 22.3478 45.3308ZM7.24375 1.75791C10.2688 1.75791 12.7297 4.21885 12.7297 7.24385C12.7306 8.22638 12.4659 9.1909 11.9637 10.0354C11.3152 9.16309 10.4401 8.48514 9.4335 8.0751C9.95771 7.5291 10.2809 6.78867 10.2809 5.97383C10.2809 4.29922 8.91836 2.93672 7.24375 2.93672C5.56914 2.93672 4.20654 4.29922 4.20654 5.97383C4.20654 6.78867 4.52979 7.5291 5.05391 8.0751C4.04729 8.48509 3.17225 9.16305 2.52383 10.0354C2.02155 9.1909 1.75688 8.22638 1.75781 7.24385C1.75781 4.21885 4.21875 1.75791 7.24375 1.75791ZM7.24375 7.64375C6.32295 7.64375 5.57373 6.89463 5.57373 5.97373C5.57373 5.05283 6.32285 4.30381 7.24375 4.30381C8.16465 4.30381 8.91367 5.05293 8.91367 5.97373C8.91367 6.89453 8.16455 7.64375 7.24375 7.64375ZM3.40928 11.1619C4.22568 9.84199 5.68457 9.01094 7.24365 9.01094C8.80273 9.01094 10.2618 9.84199 11.0782 11.1619C10.0884 12.1309 8.73496 12.7297 7.24375 12.7297C5.75254 12.7297 4.39912 12.1309 3.40928 11.1619ZM25.0001 35.4638C19.2304 35.4638 14.5364 30.7698 14.5364 25.0001C14.5364 19.2304 19.2304 14.5364 25.0001 14.5364C30.7698 14.5364 35.4638 19.2304 35.4638 25.0001C35.4638 30.7698 30.7698 35.4638 25.0001 35.4638ZM42.7563 37.2704C45.7813 37.2704 48.2423 39.7313 48.2423 42.7563C48.2432 43.7389 47.9785 44.7034 47.4763 45.5479C46.8278 44.6756 45.9527 43.9976 44.9461 43.5876C45.4703 43.0416 45.7935 42.3012 45.7935 41.4863C45.7935 39.8116 44.431 38.4491 42.7563 38.4491C41.0815 38.4491 39.7191 39.8116 39.7191 41.4863C39.7191 42.3012 40.0424 43.0415 40.5665 43.5876C39.5599 43.9976 38.6848 44.6756 38.0363 45.5479C37.5341 44.7034 37.2694 43.7389 37.2703 42.7563C37.2703 39.7313 39.7313 37.2704 42.7563 37.2704H42.7563ZM42.7563 43.1563C41.8355 43.1563 41.0864 42.4071 41.0864 41.4863C41.0864 40.5655 41.8355 39.8163 42.7563 39.8163C43.6771 39.8163 44.4264 40.5654 44.4264 41.4863C44.4264 42.4072 43.6772 43.1563 42.7563 43.1563ZM38.9219 46.6744C39.7383 45.3545 41.1972 44.5234 42.7563 44.5234C44.3155 44.5234 45.7744 45.3545 46.5909 46.6744C45.6011 47.6434 44.2477 48.2422 42.7564 48.2422C41.2652 48.2422 39.9118 47.6434 38.922 46.6744H38.9219ZM25 15.4226C19.7189 15.4226 15.4225 19.719 15.4225 25.0001C15.4225 30.2812 19.7189 34.5775 25 34.5775C30.2811 34.5775 34.5775 30.2811 34.5775 25.0001C34.5775 19.7191 30.2811 15.4226 25 15.4226ZM25 33.2104C20.4729 33.2104 16.7896 29.5272 16.7896 25.0001C16.7896 20.4729 20.4728 16.7897 25 16.7897C29.5272 16.7897 33.2104 20.4729 33.2104 25.0001C33.2104 29.5273 29.5272 33.2104 25 33.2104ZM28.2296 24.7051C28.6639 24.2375 28.9298 23.6114 28.9298 22.9245C28.9298 21.6408 28.0011 20.5707 26.7805 20.3488V19.2576C26.7805 19.0763 26.7084 18.9024 26.5803 18.7742C26.4521 18.646 26.2782 18.574 26.0969 18.574C25.9156 18.574 25.7417 18.646 25.6135 18.7742C25.4853 18.9024 25.4133 19.0763 25.4133 19.2576V20.3059H24.5865V19.2576C24.5865 19.0763 24.5145 18.9024 24.3863 18.7742C24.2581 18.646 24.0842 18.574 23.9029 18.574C23.7216 18.574 23.5478 18.646 23.4196 18.7742C23.2914 18.9024 23.2193 19.0763 23.2193 19.2576V20.3059H21.3178C21.1365 20.3059 20.9626 20.3779 20.8344 20.5061C20.7062 20.6343 20.6342 20.8082 20.6342 20.9895C20.6342 21.1708 20.7062 21.3446 20.8344 21.4728C20.9626 21.601 21.1365 21.673 21.3178 21.673H21.7525V28.3272H21.3178C21.1365 28.3272 20.9626 28.3993 20.8344 28.5275C20.7062 28.6557 20.6342 28.8295 20.6342 29.0108C20.6342 29.1921 20.7062 29.366 20.8344 29.4942C20.9626 29.6224 21.1365 29.6944 21.3178 29.6944H23.2193V30.7427C23.2193 30.924 23.2914 31.0979 23.4196 31.2261C23.5478 31.3542 23.7216 31.4263 23.9029 31.4263C24.0842 31.4263 24.2581 31.3542 24.3863 31.2261C24.5145 31.0979 24.5865 30.924 24.5865 30.7427V29.6944H25.4133V30.7427C25.4133 30.924 25.4853 31.0979 25.6135 31.2261C25.7417 31.3542 25.9156 31.4263 26.0969 31.4263C26.2782 31.4263 26.4521 31.3542 26.5803 31.2261C26.7084 31.0979 26.7805 30.924 26.7805 30.7427V29.6884C28.2211 29.5982 29.3657 28.3981 29.3657 26.9353C29.3657 26.02 28.9178 25.2073 28.2296 24.7051ZM26.311 21.6729C27.0011 21.6729 27.5625 22.2344 27.5625 22.9244C27.5625 23.6145 27.0011 24.1759 26.311 24.1759H23.1197V21.6729L26.311 21.6729ZM26.6064 28.3271H23.1196V25.5432H26.6064C27.374 25.5432 27.9984 26.1676 27.9984 26.9352C27.9984 27.7027 27.374 28.3271 26.6064 28.3271Z" fill="#FF06B7"></path></g><defs><clipPath id="clip0_352_97"><rect width="50" height="50" fill="white"></rect></clipPath></defs></svg>