<svg xmlns="http://www.w3.org/2000/svg" width="50" height="50" viewBox="0 0 50 50" fill="none"><g clip-path="url(#clip0_352_44)"><path d="M28.3609 24.6402C28.6629 24.2698 28.8657 23.8287 28.9502 23.3584C29.0347 22.888 28.9982 22.4039 28.8441 21.9516C28.69 21.4992 28.4233 21.0935 28.0692 20.7726C27.7151 20.4517 27.2852 20.2262 26.8199 20.1172V18.1641C26.8199 17.9828 26.7479 17.8089 26.6197 17.6807C26.4915 17.5525 26.3176 17.4805 26.1363 17.4805C25.955 17.4805 25.7812 17.5525 25.653 17.6807C25.5248 17.8089 25.4527 17.9828 25.4527 18.1641V20.0391H24.091V18.1641C24.091 17.9828 24.019 17.8089 23.8908 17.6807C23.7626 17.5525 23.5887 17.4805 23.4074 17.4805C23.2261 17.4805 23.0522 17.5525 22.924 17.6807C22.7958 17.8089 22.7238 17.9828 22.7238 18.1641V20.0391H20.8066C20.6253 20.0391 20.4515 20.1111 20.3233 20.2393C20.1951 20.3675 20.123 20.5414 20.123 20.7227C20.123 20.904 20.1951 21.0778 20.3233 21.206C20.4515 21.3342 20.6253 21.4062 20.8066 21.4062H21.2602V28.5937H20.8066C20.6253 28.5937 20.4515 28.6658 20.3233 28.794C20.1951 28.9222 20.123 29.096 20.123 29.2773C20.123 29.4586 20.1951 29.6325 20.3233 29.7607C20.4515 29.8889 20.6253 29.9609 20.8066 29.9609H22.7238V31.8359C22.7238 32.0172 22.7958 32.1911 22.924 32.3193C23.0522 32.4475 23.2261 32.5195 23.4074 32.5195C23.5887 32.5195 23.7626 32.4475 23.8908 32.3193C24.019 32.1911 24.091 32.0172 24.091 31.8359V29.9609H25.4527V31.8359C25.4527 32.0172 25.5248 32.1911 25.653 32.3193C25.7812 32.4475 25.955 32.5195 26.1363 32.5195C26.3176 32.5195 26.4915 32.4475 26.6197 32.3193C26.7479 32.1911 26.8199 32.0172 26.8199 31.8359V29.9609H27.0543C27.6856 29.9613 28.2988 29.7498 28.7957 29.3604C29.2926 28.971 29.6445 28.4262 29.7951 27.8131C29.9457 27.2 29.8862 26.5541 29.6263 25.9788C29.3664 25.4035 28.9209 24.932 28.3613 24.6398L28.3609 24.6402ZM27.6277 22.8609C27.6273 23.2469 27.4737 23.617 27.2007 23.8898C26.9276 24.1626 26.5575 24.3159 26.1715 24.316H22.6273V21.4062H26.1715C26.5574 21.4064 26.9275 21.5596 27.2005 21.8323C27.4736 22.1051 27.6272 22.475 27.6277 22.8609ZM27.0539 28.5937H22.6273V25.6836H27.0539C27.4398 25.6836 27.8099 25.8369 28.0828 26.1098C28.3557 26.3827 28.509 26.7528 28.509 27.1387C28.509 27.5246 28.3557 27.8947 28.0828 28.1676C27.8099 28.4404 27.4398 28.5937 27.0539 28.5937Z" fill="#FF06B7"></path><path d="M47.161 22.1605C46.5278 22.1617 45.9132 22.3743 45.4147 22.7647C44.9162 23.1551 44.5624 23.7008 44.4094 24.3152H37.1907C37.1374 23.3569 36.9707 22.4084 36.6942 21.4894H38.7192C38.809 21.4894 38.8979 21.4718 38.9808 21.4375C39.0638 21.4031 39.1392 21.3528 39.2027 21.2893C39.2662 21.2258 39.3165 21.1504 39.3508 21.0675C39.3852 20.9845 39.4028 20.8956 39.4028 20.8058V15.0441H41.0149C41.1818 15.7168 41.5892 16.3052 42.1601 16.6983C42.731 17.0913 43.426 17.2619 44.114 17.1778C44.802 17.0937 45.4354 16.7608 45.8948 16.2418C46.3543 15.7228 46.6079 15.0536 46.6079 14.3605C46.6079 13.6674 46.3543 12.9982 45.8948 12.4792C45.4354 11.9602 44.802 11.6273 44.114 11.5432C43.426 11.4591 42.731 11.6297 42.1601 12.0227C41.5892 12.4158 41.1818 13.0042 41.0149 13.6769H38.7192C38.5379 13.6769 38.364 13.7489 38.2358 13.8771C38.1076 14.0053 38.0356 14.1792 38.0356 14.3605V20.1222H36.1914C34.9531 17.2994 32.6988 15.0453 29.8758 13.8074V11.9624H35.6375C35.8188 11.9624 35.9927 11.8904 36.1209 11.7622C36.2491 11.634 36.3211 11.4602 36.3211 11.2789V8.98432C36.9939 8.81738 37.5822 8.41005 37.9753 7.83915C38.3684 7.26825 38.5389 6.57326 38.4549 5.88525C38.3708 5.19724 38.0378 4.56379 37.5188 4.10436C36.9998 3.64494 36.3307 3.39131 35.6375 3.39131C34.9444 3.39131 34.2752 3.64494 33.7563 4.10436C33.2373 4.56379 32.9043 5.19724 32.8202 5.88525C32.7361 6.57326 32.9067 7.26825 33.2998 7.83915C33.6928 8.41005 34.2812 8.81738 34.9539 8.98432V10.5968H29.1922C29.011 10.5969 28.8371 10.669 28.709 10.7972C28.5808 10.9253 28.5087 11.0991 28.5086 11.2804V13.3046C27.5896 13.0282 26.6411 12.8616 25.6829 12.8085V5.58862C26.3556 5.42168 26.944 5.01435 27.337 4.44345C27.7301 3.87255 27.9007 3.17755 27.8166 2.48955C27.7325 1.80154 27.3995 1.16808 26.8806 0.70866C26.3616 0.249237 25.6924 -0.00439453 24.9993 -0.00439453C24.3061 -0.00439453 23.637 0.249237 23.118 0.70866C22.599 1.16808 22.266 1.80154 22.1819 2.48955C22.0979 3.17755 22.2684 3.87255 22.6615 4.44345C23.0546 5.01435 23.6429 5.42168 24.3157 5.58862V12.8085C23.3574 12.8616 22.4089 13.0282 21.4899 13.3046V11.2789C21.4898 11.0976 21.4177 10.9238 21.2896 10.7956C21.1614 10.6674 20.9876 10.5954 20.8063 10.5953H15.0446V8.98432C15.7173 8.81738 16.3057 8.41005 16.6987 7.83915C17.0918 7.26825 17.2624 6.57326 17.1783 5.88525C17.0942 5.19724 16.7613 4.56379 16.2423 4.10436C15.7233 3.64494 15.0541 3.39131 14.361 3.39131C13.6679 3.39131 12.9987 3.64494 12.4797 4.10436C11.9607 4.56379 11.6278 5.19724 11.5437 5.88525C11.4596 6.57326 11.6301 7.26825 12.0232 7.83915C12.4163 8.41005 13.0047 8.81738 13.6774 8.98432V11.2804C13.6774 11.4617 13.7494 11.6356 13.8776 11.7638C14.0058 11.892 14.1797 11.964 14.361 11.964H20.1227V13.8089C17.3 15.0465 15.0457 17.3 13.8071 20.1222H11.9629V14.3605C11.9629 14.1792 11.8909 14.0053 11.7627 13.8771C11.6345 13.7489 11.4606 13.6769 11.2793 13.6769H8.98364C8.8167 13.0042 8.40937 12.4158 7.83847 12.0227C7.26757 11.6297 6.57257 11.4591 5.88457 11.5432C5.19656 11.6273 4.5631 11.9602 4.10368 12.4792C3.64426 12.9982 3.39062 13.6674 3.39062 14.3605C3.39062 15.0536 3.64426 15.7228 4.10368 16.2418C4.5631 16.7608 5.19656 17.0937 5.88457 17.1778C6.57257 17.2619 7.26757 17.0913 7.83847 16.6983C8.40937 16.3052 8.8167 15.7168 8.98364 15.0441H10.5961V20.8058C10.5961 20.8956 10.6137 20.9845 10.6481 21.0675C10.6824 21.1504 10.7328 21.2258 10.7962 21.2893C10.8597 21.3528 10.9351 21.4031 11.0181 21.4375C11.101 21.4718 11.1899 21.4894 11.2797 21.4894H13.3047C13.0282 22.4084 12.8615 23.3569 12.8082 24.3152H5.58911C5.42217 23.6425 5.01483 23.0541 4.44394 22.661C3.87304 22.2679 3.17804 22.0974 2.49003 22.1815C1.80203 22.2655 1.16857 22.5985 0.709148 23.1175C0.249725 23.6365 -0.00390625 24.3056 -0.00390625 24.9988C-0.00390625 25.6919 0.249725 26.3611 0.709148 26.8801C1.16857 27.3991 1.80203 27.732 2.49003 27.8161C3.17804 27.9002 3.87304 27.7296 4.44394 27.3365C5.01483 26.9435 5.42217 26.3551 5.58911 25.6824H12.8079C12.8609 26.6406 13.0273 27.5891 13.3036 28.5081H11.2793C11.098 28.5081 10.9242 28.5802 10.796 28.7084C10.6678 28.8366 10.5957 29.0104 10.5957 29.1917V34.9535H8.98364C8.8167 34.2807 8.40937 33.6924 7.83847 33.2993C7.26757 32.9062 6.57257 32.7356 5.88457 32.8197C5.19656 32.9038 4.5631 33.2368 4.10368 33.7558C3.64426 34.2748 3.39062 34.9439 3.39062 35.6371C3.39062 36.3302 3.64426 36.9994 4.10368 37.5183C4.5631 38.0373 5.19656 38.3703 5.88457 38.4544C6.57257 38.5385 7.26757 38.3679 7.83847 37.9748C8.40937 37.5818 8.8167 36.9934 8.98364 36.3206H11.2797C11.461 36.3206 11.6349 36.2486 11.7631 36.1204C11.8913 35.9922 11.9633 35.8184 11.9633 35.6371V29.8753H13.8067C15.0446 32.6992 17.2993 34.9543 20.1231 36.1925V38.0351H14.361C14.1797 38.0351 14.0058 38.1071 13.8776 38.2353C13.7494 38.3635 13.6774 38.5374 13.6774 38.7187V41.0156C13.0047 41.1825 12.4163 41.5898 12.0232 42.1607C11.6301 42.7316 11.4596 43.4266 11.5437 44.1146C11.6278 44.8026 11.9607 45.4361 12.4797 45.8955C12.9987 46.355 13.6679 46.6086 14.361 46.6086C15.0541 46.6086 15.7233 46.355 16.2423 45.8955C16.7613 45.4361 17.0942 44.8026 17.1783 44.1146C17.2624 43.4266 17.0918 42.7316 16.6987 42.1607C16.3057 41.5898 15.7173 41.1825 15.0446 41.0156V39.4023H20.8063C20.9876 39.4022 21.1614 39.3301 21.2896 39.202C21.4177 39.0738 21.4898 38.9 21.4899 38.7187V36.6953C22.4089 36.9717 23.3574 37.1382 24.3157 37.1914V44.4089C23.6429 44.5759 23.0546 44.9832 22.6615 45.5541C22.2684 46.125 22.0979 46.82 22.1819 47.508C22.266 48.196 22.599 48.8295 23.118 49.2889C23.637 49.7483 24.3061 50.0019 24.9993 50.0019C25.6924 50.0019 26.3616 49.7483 26.8806 49.2889C27.3995 48.8295 27.7325 48.196 27.8166 47.508C27.9007 46.82 27.7301 46.125 27.337 45.5541C26.944 44.9832 26.3556 44.5759 25.6829 44.4089V37.1914C26.6411 37.1382 27.5896 36.9717 28.5086 36.6953V38.7187C28.5087 38.9 28.5808 39.0738 28.709 39.202C28.8371 39.3301 29.011 39.4022 29.1922 39.4023H34.9539V41.0156C34.2812 41.1825 33.6928 41.5898 33.2998 42.1607C32.9067 42.7316 32.7361 43.4266 32.8202 44.1146C32.9043 44.8026 33.2373 45.4361 33.7563 45.8955C34.2752 46.355 34.9444 46.6086 35.6375 46.6086C36.3307 46.6086 36.9998 46.355 37.5188 45.8955C38.0378 45.4361 38.3708 44.8026 38.4549 44.1146C38.5389 43.4266 38.3684 42.7316 37.9753 42.1607C37.5822 41.5898 36.9939 41.1825 36.3211 41.0156V38.7187C36.3211 38.5374 36.2491 38.3635 36.1209 38.2353C35.9927 38.1071 35.8188 38.0351 35.6375 38.0351H29.8758V36.1925C32.6996 34.9543 34.9543 32.6992 36.1922 29.8753H38.0356V35.6371C38.0356 35.8184 38.1076 35.9922 38.2358 36.1204C38.364 36.2486 38.5379 36.3206 38.7192 36.3206H41.0149C41.1818 36.9934 41.5892 37.5818 42.1601 37.9748C42.731 38.3679 43.426 38.5385 44.114 38.4544C44.802 38.3703 45.4354 38.0373 45.8948 37.5183C46.3543 36.9994 46.6079 36.3302 46.6079 35.6371C46.6079 34.9439 46.3543 34.2748 45.8948 33.7558C45.4354 33.2368 44.802 32.9038 44.114 32.8197C43.426 32.7356 42.731 32.9062 42.1601 33.2993C41.5892 33.6924 41.1818 34.2807 41.0149 34.9535H39.4024V29.1917C39.4024 29.0104 39.3304 28.8366 39.2022 28.7084C39.074 28.5802 38.9001 28.5081 38.7188 28.5081H36.695C36.9713 27.5891 37.1377 26.6406 37.1907 25.6824H44.4094C44.5378 26.1983 44.8086 26.6677 45.191 27.0372C45.5733 27.4066 46.0518 27.6612 46.5718 27.7718C47.0918 27.8825 47.6325 27.8447 48.1321 27.6629C48.6317 27.4812 49.0702 27.1626 49.3975 26.7437C49.7248 26.3247 49.9278 25.8222 49.9834 25.2934C50.0389 24.7647 49.9447 24.231 49.7115 23.7531C49.4784 23.2753 49.1156 22.8727 48.6646 22.5911C48.2137 22.3095 47.6926 22.1603 47.161 22.1605ZM43.7668 12.8906C44.0578 12.8906 44.3422 12.9768 44.5841 13.1385C44.8261 13.3001 45.0146 13.5299 45.126 13.7987C45.2373 14.0675 45.2664 14.3633 45.2097 14.6487C45.1529 14.934 45.0128 15.1961 44.8071 15.4019C44.6013 15.6076 44.3392 15.7477 44.0538 15.8045C43.7685 15.8613 43.4727 15.8321 43.2039 15.7208C42.9351 15.6094 42.7053 15.4209 42.5437 15.179C42.382 14.937 42.2957 14.6526 42.2957 14.3617C42.2962 13.9716 42.4513 13.5977 42.7271 13.3219C43.0029 13.0461 43.3768 12.891 43.7668 12.8906ZM34.1665 6.2312C34.1665 5.94024 34.2527 5.65582 34.4144 5.4139C34.576 5.17198 34.8058 4.98343 35.0746 4.87208C35.3434 4.76074 35.6392 4.73161 35.9245 4.78837C36.2099 4.84513 36.472 4.98524 36.6778 5.19098C36.8835 5.39671 37.0236 5.65884 37.0804 5.9442C37.1371 6.22956 37.108 6.52535 36.9967 6.79416C36.8853 7.06297 36.6968 7.29272 36.4548 7.45437C36.2129 7.61601 35.9285 7.70229 35.6375 7.70229C35.2475 7.70188 34.8736 7.54675 34.5978 7.27096C34.322 6.99516 34.1669 6.62123 34.1665 6.2312ZM12.8899 6.2312C12.8899 5.94024 12.9762 5.65582 13.1378 5.4139C13.2995 5.17198 13.5292 4.98343 13.798 4.87208C14.0668 4.76074 14.3626 4.73161 14.648 4.78837C14.9333 4.84513 15.1955 4.98524 15.4012 5.19098C15.6069 5.39671 15.747 5.65884 15.8038 5.9442C15.8606 6.22956 15.8314 6.52535 15.7201 6.79416C15.6088 7.06297 15.4202 7.29272 15.1783 7.45437C14.9364 7.61601 14.6519 7.70229 14.361 7.70229C13.9709 7.70188 13.597 7.54675 13.3212 7.27096C13.0454 6.99516 12.8903 6.62123 12.8899 6.2312ZM6.23168 15.8316C5.94073 15.8316 5.65631 15.7453 5.41439 15.5837C5.17247 15.422 4.98391 15.1923 4.87257 14.9235C4.76123 14.6546 4.73209 14.3589 4.78886 14.0735C4.84562 13.7881 4.98573 13.526 5.19146 13.3203C5.3972 13.1145 5.65932 12.9744 5.94469 12.9177C6.23005 12.8609 6.52584 12.89 6.79465 13.0014C7.06345 13.1127 7.29321 13.3013 7.45485 13.5432C7.6165 13.7851 7.70278 14.0695 7.70278 14.3605C7.70226 14.7505 7.5471 15.1244 7.27133 15.4001C6.99556 15.6759 6.62168 15.8311 6.23168 15.8316ZM6.23168 37.1081C5.94073 37.1081 5.65631 37.0219 5.41439 36.8602C5.17247 36.6986 4.98391 36.4688 4.87257 36.2C4.76123 35.9312 4.73209 35.6354 4.78886 35.3501C4.84562 35.0647 4.98573 34.8026 5.19146 34.5968C5.3972 34.3911 5.65932 34.251 5.94469 34.1942C6.23005 34.1375 6.52584 34.1666 6.79465 34.2779C7.06345 34.3893 7.29321 34.5778 7.45485 34.8198C7.6165 35.0617 7.70278 35.3461 7.70278 35.6371C7.70257 36.0273 7.54755 36.4014 7.27175 36.6775C6.99594 36.9535 6.62189 37.1088 6.23168 37.1093V37.1081ZM15.8321 43.7664C15.8321 44.0573 15.7458 44.3417 15.5842 44.5836C15.4225 44.8256 15.1928 45.0141 14.9239 45.1255C14.6551 45.2368 14.3593 45.2659 14.074 45.2092C13.7886 45.1524 13.5265 45.0123 13.3208 44.8066C13.115 44.6008 12.9749 44.3387 12.9182 44.0533C12.8614 43.768 12.8905 43.4722 13.0019 43.2034C13.1132 42.9346 13.3018 42.7048 13.5437 42.5432C13.7856 42.3815 14.07 42.2953 14.361 42.2953C14.751 42.2957 15.125 42.4508 15.4007 42.7266C15.6765 43.0024 15.8317 43.3763 15.8321 43.7664ZM37.1086 43.7664C37.1086 44.0573 37.0224 44.3417 36.8607 44.5836C36.6991 44.8256 36.4693 45.0141 36.2005 45.1255C35.9317 45.2368 35.6359 45.2659 35.3505 45.2092C35.0652 45.1524 34.8031 45.0123 34.5973 44.8066C34.3916 44.6008 34.2515 44.3387 34.1947 44.0533C34.138 43.768 34.1671 43.4722 34.2784 43.2034C34.3898 42.9346 34.5783 42.7048 34.8202 42.5432C35.0622 42.3815 35.3466 42.2953 35.6375 42.2953C36.0276 42.2957 36.4015 42.4508 36.6773 42.7266C36.9531 43.0024 37.1082 43.3763 37.1086 43.7664ZM43.7668 34.166C44.0578 34.166 44.3422 34.2522 44.5841 34.4139C44.8261 34.5755 45.0146 34.8053 45.126 35.0741C45.2373 35.3429 45.2664 35.6387 45.2097 35.9241C45.1529 36.2094 45.0128 36.4715 44.8071 36.6773C44.6013 36.883 44.3392 37.0231 44.0538 37.0799C43.7685 37.1366 43.4727 37.1075 43.2039 36.9962C42.9351 36.8848 42.7053 36.6963 42.5437 36.4544C42.382 36.2124 42.2957 35.928 42.2957 35.6371C42.2962 35.247 42.4513 34.8731 42.7271 34.5973C43.0029 34.3215 43.3768 34.1664 43.7668 34.166ZM23.5282 2.83705C23.5282 2.5461 23.6144 2.26168 23.7761 2.01976C23.9377 1.77784 24.1675 1.58928 24.4363 1.47794C24.7051 1.3666 25.0009 1.33747 25.2863 1.39423C25.5716 1.45099 25.8337 1.5911 26.0395 1.79683C26.2452 2.00257 26.3853 2.26469 26.4421 2.55006C26.4989 2.83542 26.4697 3.13121 26.3584 3.40002C26.247 3.66883 26.0585 3.89858 25.8166 4.06022C25.5746 4.22187 25.2902 4.30815 24.9993 4.30815C24.6093 4.30763 24.2354 4.15248 23.9596 3.8767C23.6838 3.60093 23.5287 3.22705 23.5282 2.83705ZM2.83754 26.4699C2.54654 26.4699 2.26207 26.3836 2.02013 26.2219C1.77818 26.0602 1.58963 25.8303 1.47832 25.5615C1.36701 25.2926 1.33794 24.9967 1.3948 24.7113C1.45166 24.4259 1.59188 24.1638 1.79774 23.9581C2.00359 23.7524 2.26582 23.6124 2.55127 23.5558C2.83671 23.4992 3.13253 23.5285 3.40132 23.64C3.67011 23.7515 3.89978 23.9403 4.06128 24.1823C4.22279 24.4244 4.30887 24.7089 4.30864 24.9999C4.30791 25.3898 4.15265 25.7634 3.87689 26.039C3.60113 26.3145 3.22737 26.4695 2.83754 26.4699ZM26.4704 47.1605C26.4704 47.4514 26.3841 47.7359 26.2224 47.9778C26.0608 48.2197 25.831 48.4083 25.5622 48.5196C25.2934 48.6309 24.9976 48.6601 24.7123 48.6033C24.4269 48.5466 24.1648 48.4064 23.959 48.2007C23.7533 47.995 23.6132 47.7329 23.5564 47.4475C23.4997 47.1621 23.5288 46.8663 23.6401 46.5975C23.7515 46.3287 23.94 46.099 24.182 45.9373C24.4239 45.7757 24.7083 45.6894 24.9993 45.6894C25.3893 45.6898 25.7632 45.8449 26.039 46.1207C26.3148 46.3965 26.4699 46.7705 26.4704 47.1605ZM25.0172 35.8441H24.9813C22.1108 35.836 19.3603 34.6915 17.3315 32.6608C15.3026 30.6302 14.1606 27.8786 14.1551 25.0081V24.9898C14.1551 22.1137 15.2976 19.3555 17.3313 17.3218C19.365 15.2882 22.1232 14.1456 24.9993 14.1456C27.8753 14.1456 30.6336 15.2882 32.6672 17.3218C34.7009 19.3555 35.8434 22.1137 35.8434 24.9898V25.0081C35.8379 27.8786 34.6959 30.6302 32.667 32.6608C30.6382 34.6915 27.8877 35.836 25.0172 35.8441ZM47.161 26.4691C46.8699 26.4691 46.5854 26.3828 46.3435 26.221C46.1015 26.0593 45.913 25.8294 45.8017 25.5605C45.6904 25.2916 45.6614 24.9957 45.7183 24.7103C45.7752 24.4249 45.9155 24.1627 46.1215 23.9571C46.3274 23.7514 46.5897 23.6115 46.8752 23.5549C47.1607 23.4984 47.4565 23.5278 47.7253 23.6394C47.9941 23.7511 48.2237 23.9399 48.3851 24.1821C48.5465 24.4243 48.6325 24.7089 48.6321 24.9999C48.6314 25.3898 48.4761 25.7634 48.2003 26.039C47.9246 26.3145 47.5508 26.4695 47.161 26.4699V26.4691Z" fill="#FF06B7"></path></g><defs><clipPath id="clip0_352_44"><rect width="50" height="50" fill="white"></rect></clipPath></defs></svg>