<svg xmlns="http://www.w3.org/2000/svg" width="39" height="39" viewBox="0 0 39 39" fill="none"><path fill-rule="evenodd" clip-rule="evenodd" d="M32.5544 17.9469C34.8333 20.4722 36.5322 22.6632 37.6511 24.6277C41.7487 31.8224 35.9196 39.1298 28.113 38.9983C20.3064 39.1298 14.4773 31.8224 18.5749 24.6277C19.6938 22.6632 21.3928 20.4722 23.6716 17.9469C23.9502 18.0351 24.2406 18.0799 24.5328 18.0797H31.6931C31.993 18.0797 32.2824 18.0331 32.5544 17.9469ZM3.57496 0C1.60868 0 0 1.60876 0 3.57496V29.7096C0 31.6759 1.60868 33.2846 3.57496 33.2846H16.7397C15.453 30.2101 15.8423 26.8837 17.4817 24.0051C17.8166 23.4171 18.184 22.8344 18.5756 22.2587C18.3491 22.1121 18.1986 21.8572 18.1986 21.5683V20.4998C18.1986 20.0472 18.5678 19.678 19.0204 19.678H20.511C21.1773 18.8591 21.8704 18.0619 22.5642 17.2925C22.3586 17.0975 22.1829 16.8732 22.0427 16.627H19.0204C18.5678 16.627 18.1986 16.2578 18.1986 15.8051V14.7366C18.1986 14.284 18.5678 13.9148 19.0204 13.9148H21.984C22.2399 13.4173 22.6348 13.0049 23.1207 12.7276L22.2667 11.8736C21.7468 11.3538 21.4658 10.6834 21.4232 10.0008H4.76659C4.31392 10.0008 3.94476 9.63162 3.94476 9.17895V5.95318C3.94476 5.50051 4.31392 5.13135 4.76659 5.13135H22.8472C23.2999 5.13135 23.669 5.50051 23.669 5.95318V6.98739C24.249 6.85435 24.8658 6.89862 25.4296 7.12987C25.8108 6.21746 26.6377 5.55445 27.6139 5.38359V3.57496C27.6139 1.60876 26.0051 0 24.0389 0H3.57496ZM24.5329 16.8216C23.6501 16.8216 22.9279 16.0994 22.9279 15.2167C22.9279 14.334 23.6501 13.6118 24.5329 13.6118H31.6931C32.5759 13.6118 33.2981 14.334 33.2981 15.2167C33.2981 16.0994 32.5759 16.8216 31.6931 16.8216H24.5329ZM5.52167 13.9148H8.59333C9.046 13.9148 9.41516 14.284 9.41516 14.7366V15.805C9.41516 16.2577 9.046 16.6269 8.59333 16.6269H5.52167C5.069 16.6269 4.69984 16.2577 4.69984 15.805V14.7366C4.69984 14.284 5.069 13.9148 5.52167 13.9148ZM12.2711 25.4411C11.8184 25.4411 11.4492 25.8103 11.4492 26.263V27.3314C11.4492 27.7841 11.8184 28.1532 12.2711 28.1532H15.3427C15.7954 28.1532 16.1645 27.7841 16.1645 27.3314V26.263C16.1645 25.8103 15.7954 25.4411 15.3427 25.4411H12.2711ZM5.52167 25.4411H8.59333C9.046 25.4411 9.41516 25.8103 9.41516 26.263V27.3314C9.41516 27.7841 9.046 28.1532 8.59333 28.1532H5.52167C5.069 28.1532 4.69984 27.7841 4.69984 27.3314V26.263C4.69984 25.8103 5.069 25.4411 5.52167 25.4411ZM12.2711 19.6779C11.8184 19.6779 11.4492 20.0471 11.4492 20.4998V21.5682C11.4492 22.0208 11.8184 22.39 12.2711 22.39H15.3427C15.7954 22.39 16.1645 22.0208 16.1645 21.5682V20.4998C16.1645 20.0471 15.7954 19.6779 15.3427 19.6779H12.2711ZM5.52167 19.6779H8.59333C9.046 19.6779 9.41516 20.0471 9.41516 20.4998V21.5682C9.41516 22.0208 9.046 22.39 8.59333 22.39H5.52167C5.069 22.39 4.69984 22.0208 4.69984 21.5682V20.4998C4.69984 20.0472 5.069 19.6779 5.52167 19.6779ZM12.2711 13.9148H15.3427C15.7954 13.9148 16.1645 14.284 16.1645 14.7366V15.805C16.1645 16.2577 15.7954 16.6269 15.3427 16.6269H12.2711C11.8184 16.6269 11.4492 16.2577 11.4492 15.805V14.7366C11.4492 14.284 11.8184 13.9148 12.2711 13.9148ZM28.0307 31.4506C27.5484 31.438 27.0801 31.3074 26.7069 31.0588C26.3691 30.8339 26.111 30.5048 26.0032 30.0725C25.9804 29.9797 25.9395 29.8923 25.8829 29.8153C25.8263 29.7383 25.7551 29.6732 25.6733 29.6238C25.5916 29.5743 25.5009 29.5414 25.4064 29.527C25.312 29.5125 25.2156 29.5169 25.1228 29.5397C25.03 29.5625 24.9426 29.6034 24.8656 29.66C24.7886 29.7166 24.7235 29.7878 24.6741 29.8696C24.6246 29.9513 24.5917 30.042 24.5773 30.1365C24.5629 30.2309 24.5672 30.3273 24.59 30.4201C24.7936 31.2367 25.275 31.8541 25.9034 32.2726C26.3327 32.5585 26.8312 32.7475 27.3532 32.8395V33.4057C27.3552 33.5979 27.4329 33.7815 27.5695 33.9166C27.7061 34.0518 27.8905 34.1276 28.0826 34.1276C28.2747 34.1276 28.4591 34.0518 28.5957 33.9166C28.7323 33.7815 28.81 33.5979 28.812 33.4057V32.8535C29.4464 32.7567 30.0927 32.5252 30.6002 32.1402C31.21 31.6775 31.6157 31.0149 31.5945 30.1256C31.593 30.0361 31.5871 29.9467 31.577 29.8578C31.4587 28.8834 30.9316 28.2492 30.2326 27.8271C29.6187 27.4564 28.8824 27.2718 28.2073 27.161C27.7205 27.081 27.2077 26.9458 26.8321 26.7006C26.5411 26.5107 26.3324 26.2356 26.3128 25.8335C26.2917 25.3984 26.4817 25.0473 26.781 24.8039C27.0155 24.6133 27.3146 24.4808 27.6389 24.4156C27.7708 24.3891 27.9047 24.3741 28.0392 24.3706C28.071 24.3725 28.1029 24.3724 28.1348 24.3701C28.314 24.3727 28.4947 24.3957 28.671 24.4403C29.2133 24.5778 29.7069 24.9352 29.9669 25.5544C30.1227 25.9257 30.5501 26.1005 30.9214 25.9447C31.2928 25.7889 31.4675 25.3615 31.3117 24.9902C30.8539 23.8999 29.9824 23.27 29.0243 23.0271C28.954 23.0093 28.8832 22.9936 28.812 22.9802V22.415C28.8086 22.2238 28.7302 22.0416 28.5938 21.9077C28.4574 21.7737 28.2738 21.6986 28.0826 21.6986C27.8914 21.6986 27.7078 21.7737 27.5714 21.9077C27.435 22.0416 27.3566 22.2238 27.3532 22.415V22.9911C26.8005 23.1026 26.2816 23.3358 25.8636 23.6757C25.2212 24.198 24.8138 24.9564 24.8597 25.902C24.9058 26.8521 25.3799 27.4894 26.04 27.9202C26.6154 28.2959 27.3221 28.4902 27.9737 28.5972C28.4971 28.6831 29.0559 28.8189 29.4804 29.0752C29.82 29.2802 30.0751 29.5799 30.1296 30.0288C30.1368 30.0887 30.1408 30.1322 30.1414 30.1599C30.1499 30.5169 29.9791 30.7889 29.7226 30.9835C29.4016 31.2271 28.9507 31.3707 28.4998 31.4255C28.3771 31.4403 28.2699 31.4488 28.179 31.4509L28.1442 31.4516C28.1237 31.4498 28.1031 31.449 28.0826 31.449C28.0653 31.4488 28.0479 31.4494 28.0307 31.4506ZM24.5261 12.3538L23.1563 10.984C22.5148 10.3425 22.5148 9.29288 23.1563 8.6515C23.7018 8.1059 24.5655 8.01374 25.2146 8.4304C25.4558 8.58514 25.7327 8.60983 25.9973 8.5003C26.2619 8.39069 26.4402 8.17753 26.5013 7.89753C26.663 7.15716 27.3258 6.59834 28.113 6.59818C28.8858 6.59818 29.56 7.143 29.7247 7.89753C29.7858 8.17753 29.9642 8.39069 30.2288 8.5003C30.4935 8.60999 30.7703 8.58514 31.0113 8.4304C31.6491 8.02106 32.5132 8.09489 33.0697 8.65135C33.7112 9.29281 33.7112 10.3426 33.0697 10.984L31.6999 12.3538L31.6931 12.3537H24.5328L24.5261 12.3538Z" fill="#FF06B7"></path></svg>