<svg xmlns="http://www.w3.org/2000/svg" width="34" height="34" viewBox="0 0 34 34" fill="none"><path d="M29.4062 23.414C28.4038 21.5263 26.0862 20.7516 24.1504 21.6957L22.1005 22.6955C22.4003 23.0639 22.6666 23.4619 22.855 23.9134C23.2052 24.7519 23.3171 25.6468 23.1936 26.5213L29.4062 23.414ZM16.0039 8.03516C16.0039 12.0949 19.051 15.5086 22.9766 16.0039V12.8321C21.8196 12.4196 20.9844 11.3243 20.9844 10.0273H22.9766C22.9766 10.5769 23.4231 11.0234 23.9727 11.0234C24.5222 11.0234 24.9687 10.5769 24.9687 10.0273C24.9687 9.47777 24.5222 9.03125 23.9727 9.03125C22.3249 9.03125 20.9844 7.69077 20.9844 6.04297C20.9844 4.74606 21.8196 3.65075 22.9766 3.23817V0C19.051 0.495258 16.0039 3.97528 16.0039 8.03516Z" fill="#FF06B7"></path><path d="M22.9766 6.04297C22.9766 6.59255 23.4231 7.03906 23.9727 7.03906C25.6205 7.03906 26.9609 8.37954 26.9609 10.0273C26.9609 11.3243 26.1257 12.4196 24.9688 12.8321V16.0039C28.8943 15.5086 31.9414 12.0949 31.9414 8.03516C31.9414 3.97528 28.8943 0.495258 24.9688 0V3.23817C26.1257 3.65075 26.9609 4.74605 26.9609 6.04297H24.9688C24.9688 5.49339 24.5222 5.04688 23.9727 5.04688C23.4231 5.04688 22.9766 5.49332 22.9766 6.04297ZM9.03125 8.03516C9.03125 12.4361 12.5989 16.0039 17 16.0039C17.3229 16.0039 17.6299 15.9463 17.9427 15.9089C15.5695 14.0865 14.0117 11.2514 14.0117 8.03516C14.0117 4.8189 15.5695 1.91741 17.9427 0.0949609C17.6299 0.0576406 17.3229 0 17 0C12.5989 0 9.03125 3.63408 9.03125 8.03516Z" fill="#FF06B7"></path><path d="M10.97 0.0949609C10.6572 0.0576406 10.3503 0 10.0273 0C5.62627 0 2.05859 3.63408 2.05859 8.03516C2.05859 12.4361 5.62627 16.0039 10.0273 16.0039C10.3503 16.0039 10.6572 15.9463 10.97 15.9089C8.59689 14.0865 7.03906 11.2514 7.03906 8.03516C7.03906 4.81884 8.59689 1.91741 10.97 0.0949609ZM0 19.9883H3.98438V31.9414H0V19.9883ZM30.5261 25.0819L20.785 29.9531L13.8523 27.2877L14.5663 25.4278L20.68 27.778L21.0109 26.9949C21.6623 25.4538 20.9217 23.6783 19.3683 23.0569L12.9073 20.4723C11.1127 19.7544 9.03039 19.8381 7.3015 20.7022L5.97656 21.3645V29.6279L14.7529 33.178C16.7393 33.9728 18.8784 34.196 21.0467 33.8265C22.2022 33.6296 23.3122 33.2101 24.3605 32.686L34 27.8325L33.9999 27.1799C33.9942 25.433 32.0886 24.3006 30.5261 25.0819Z" fill="#FF06B7"></path></svg>